<svg width="562" height="621" viewBox="0 0 562 621" fill="none" xmlns="http://www.w3.org/2000/svg">
<g style="mix-blend-mode:multiply">
<g style="mix-blend-mode:multiply">
<path d="M482.116 513.982C519.873 513.982 550.481 507.07 550.481 498.543C550.481 490.016 519.873 483.104 482.116 483.104C444.358 483.104 413.75 490.016 413.75 498.543C413.75 507.07 444.358 513.982 482.116 513.982Z" fill="#14A6D3"/>
</g>
</g>
<g style="mix-blend-mode:multiply">
<g style="mix-blend-mode:multiply">
<path d="M280.904 592.413C436.043 592.413 561.809 564.375 561.809 529.789C561.809 495.203 436.043 467.166 280.904 467.166C125.765 467.166 0 495.203 0 529.789C0 564.375 125.765 592.413 280.904 592.413Z" fill="#14A6D3"/>
</g>
</g>
<path d="M347.69 237.251C354.234 216.657 390.636 252.935 397.309 239.279C407.716 217.975 337.63 169.284 352.418 107.973C358.46 82.9273 388.548 130.137 394.045 119.802C400.087 108.444 384.637 7.42636 416.878 0.344032C449.119 -6.7383 448.638 97.7826 456.117 106.165C462.923 113.799 485.297 55.0563 494.737 76.7051C517.848 129.691 456.945 207.157 470.082 223.293C478.502 233.634 508.557 182.752 517.848 199.867C521.726 207.012 526.919 226.156 522.795 241.382C510.246 287.687 468.624 363.602 443.728 369.077C418.839 374.546 367.643 319.024 348.849 279.606C342.673 266.647 344.954 245.865 347.684 237.263L347.69 237.251Z" fill="#62D5FA"/>
<path d="M445.333 368.712L419.188 32.1191L442.122 369.415C442.208 370.658 442.993 371.512 443.88 371.324C444.767 371.135 445.418 369.98 445.333 368.737V368.706V368.712Z" fill="#4673D9"/>
<path d="M432.771 201.909L360.484 118.051L430.602 205.437C431.254 206.247 432.274 206.122 432.883 205.161C433.492 204.2 433.46 202.769 432.814 201.959C432.803 201.946 432.787 201.927 432.771 201.909Z" fill="#4673D9"/>
<path d="M440.266 308.607L360.906 254.504L438.685 312.688C439.454 313.266 440.443 312.826 440.891 311.709C441.34 310.591 441.084 309.222 440.314 308.645C440.298 308.632 440.277 308.62 440.266 308.607Z" fill="#4673D9"/>
<path d="M432.989 204.91L488.372 89.9473L430.382 202.436C429.842 203.478 429.986 204.891 430.697 205.594C431.407 206.297 432.422 206.021 432.957 204.979C432.967 204.96 432.978 204.935 432.989 204.916V204.91Z" fill="#4673D9"/>
<path d="M440.53 312.281L507.518 222.289L438.415 309.016C437.731 309.876 437.64 311.314 438.212 312.231C438.783 313.148 439.804 313.198 440.487 312.338C440.498 312.319 440.52 312.3 440.53 312.281Z" fill="#4673D9"/>
<path d="M413.764 291.109L373.227 292.968L413.7 293.382C414.143 293.382 414.528 292.88 414.555 292.252C414.581 291.624 414.245 291.109 413.801 291.109C413.791 291.109 413.78 291.109 413.769 291.109H413.764Z" fill="#4673D9"/>
<path d="M456.985 289.01L459.485 245.775L455.382 288.891C455.323 289.519 455.633 290.065 456.077 290.115C456.52 290.166 456.926 289.701 456.985 289.073C456.985 289.054 456.985 289.029 456.985 289.017V289.01Z" fill="#4673D9"/>
<path d="M409.273 175.425L376.172 171.086L408.995 177.679C409.433 177.766 409.855 177.333 409.941 176.712C410.026 176.09 409.743 175.512 409.305 175.425C409.294 175.425 409.278 175.425 409.268 175.418L409.273 175.425Z" fill="#4673D9"/>
<path d="M452.535 163.485L454.063 123.734L450.927 163.422C450.879 164.05 451.194 164.583 451.637 164.621C452.081 164.659 452.481 164.175 452.529 163.554C452.529 163.535 452.529 163.51 452.529 163.491L452.535 163.485Z" fill="#4673D9"/>
<path d="M426.454 126.721L411.57 91.7051L425.749 127.33C425.856 127.6 426.101 127.682 426.294 127.519C426.491 127.355 426.561 127.004 426.454 126.734V126.721Z" fill="#4673D9"/>
<path d="M475.942 264.526L500.073 258.084L475.781 262.278C475.338 262.353 475.001 262.925 475.033 263.546C475.065 264.168 475.45 264.614 475.893 264.538C475.91 264.538 475.931 264.532 475.947 264.526H475.942Z" fill="#4673D9"/>
<path d="M440.401 187.668L473.443 172.342L440.011 185.496C439.578 185.665 439.306 186.293 439.402 186.902C439.498 187.505 439.931 187.856 440.369 187.687C440.38 187.687 440.396 187.674 440.406 187.668H440.401Z" fill="#4673D9"/>
<path d="M396.846 160.437L389.891 135.932L395.318 161.291C395.447 161.881 395.895 162.189 396.323 161.982C396.75 161.768 396.996 161.122 396.868 160.525C396.862 160.494 396.852 160.462 396.846 160.437Z" fill="#4673D9"/>
<path d="M423.836 93.2053L427.602 72.875L423.446 93.0797C423.414 93.2304 423.478 93.3874 423.585 93.4188C423.692 93.4564 423.804 93.3623 423.836 93.2053Z" fill="#4673D9"/>
<path d="M516.775 343.264C516.748 343.873 516.727 344.513 516.7 345.128C516.673 345.681 516.652 346.202 516.625 346.761C513.655 409.416 502.361 447.628 477.851 488.803H418.893C394.356 447.628 383.062 409.416 380.118 346.761C380.07 345.599 380.017 344.432 379.969 343.27H516.775V343.264Z" fill="#F3D078"/>
<g style="mix-blend-mode:multiply">
<path d="M516.772 343.264C516.724 344.425 516.671 345.593 516.623 346.755H380.111C380.062 345.593 380.009 344.425 379.961 343.264H516.772Z" fill="#F89D34"/>
</g>
<path d="M525.538 334.318H371.172V344.735H525.538V334.318Z" fill="#F89D34"/>
<g style="mix-blend-mode:multiply">
<g style="mix-blend-mode:multiply">
<path d="M516.698 345.131C516.671 345.683 516.65 346.204 516.623 346.763C513.653 409.418 502.359 447.63 477.848 488.805H418.891C472.394 464.689 497.882 420.632 516.698 345.131Z" fill="#FEC73D"/>
</g>
</g>
<path d="M394.871 433.437C393.631 443.288 391.452 452.769 388.455 461.81C379.603 488.495 363.613 511.255 343.547 527.918C335.678 534.461 327.178 540.061 318.241 544.594C310.062 548.745 301.509 551.997 292.736 554.257C233.495 569.527 159.504 569.602 105.323 554.986C83.2108 549.015 38.4208 519.379 31.4598 494.001C25.6901 472.967 20.4653 412.046 21.2025 389.97C24.7231 285.003 65.0416 205.446 83.3817 182.441C98.0678 164.013 123.567 162.657 142.997 169.645C147.901 171.403 152.025 173.689 156.176 176.815C157.282 177.644 158.366 178.592 159.451 179.66C174.458 194.433 189.801 231.955 251.761 285.33C270.774 301.704 301.797 299.538 330.875 320.176C333.685 322.173 336.511 324.245 339.343 326.417C343.237 329.393 347.148 332.551 351.075 335.923C358.052 341.913 364.58 347.696 370.387 353.748C388.668 372.804 399.77 394.497 394.882 433.437H394.871Z" fill="#62D5FA"/>
<g style="mix-blend-mode:multiply">
<path d="M394.868 433.437C387.223 494.245 343.822 541.091 292.729 554.263C233.488 569.533 159.497 569.608 105.315 554.991C83.203 549.02 38.413 519.385 31.452 494.007C25.6823 472.973 20.4575 412.058 21.1947 389.976C24.7153 285.015 65.0337 205.458 83.3739 182.447C98.0599 164.019 123.559 162.663 142.989 169.651C147.893 171.415 152.017 173.701 156.168 176.821C157.269 177.65 158.353 178.598 159.438 179.666C143.117 177.97 97.28 169.387 69.1527 227.81C44.6528 278.699 54.7231 392.594 63.8584 432.796C92.8138 560.247 279.378 557.622 334.847 489.241C354.678 464.792 384.445 429.431 377.73 388.067C374.445 367.831 359.272 348.091 334.724 323.083C334.724 323.083 334.73 323.083 334.735 323.083C336.263 324.169 337.796 325.28 339.335 326.417C343.224 329.393 347.14 332.551 351.067 335.923C358.038 341.906 364.572 347.689 370.379 353.741C388.66 372.797 399.762 394.496 394.868 433.43V433.437Z" fill="#9FE2F7"/>
</g>
<path d="M130.044 197.572C119.631 199.298 70.589 218.298 73.2869 263.014C74.6331 285.297 115.635 371.541 147.844 424.916C167.573 457.615 204.142 454.269 240.549 453.245C281.407 452.102 337.032 411.241 336.487 381.436C335.616 333.687 263.772 337.668 234.117 319.095C179.823 285.096 181.608 189.014 130.038 197.565L130.044 197.572Z" fill="#00ABE1"/>
<path d="M362.459 367.108C337.761 359.624 306.503 360.089 283.312 373.437C297.267 358.864 323.385 350.802 344.354 355.656C351.342 357.269 356.999 363.423 362.459 367.114V367.108Z" fill="#2781B5"/>
<path d="M187.328 487.755C200.935 462.402 223.955 437.545 248.626 428.566C229.965 429.207 206.256 444.395 193.824 464.826C189.679 471.638 189.155 480.673 187.333 487.755H187.328Z" fill="#00ABE1"/>
<path d="M293.812 377.82C298.952 377.443 304.016 376.771 311.41 376.633C334.302 376.144 347.209 380.457 362.456 394.188C351.606 372.546 330.242 365.237 311.464 370.172C304.417 372.025 299.582 375.246 293.812 377.82Z" fill="#2781B5"/>
<path d="M122.1 358.991C120.759 358.539 111.116 354.495 110.753 354.338C95.4415 345.058 77.0853 342.942 72.3359 341.254C86.9418 336.086 112.131 345.316 122.1 358.984V358.991Z" fill="#00ABE1"/>
<path d="M138.917 376.946C133.025 375.069 126.544 374.787 119.573 372.708C90.5266 364.044 82.4169 368.853 60.2891 370.09C84.3722 351.675 116.325 355.103 138.923 376.946H138.917Z" fill="#00ABE1"/>
<path d="M95.454 288.778C92.6867 286.737 89.2943 286.957 86.5377 284.74C78.0327 277.89 66.9688 276.352 59.9062 273.2C67.6686 272.409 79.956 273.025 87.9588 278.757C91.3244 281.168 93.675 285.45 95.454 288.784V288.778Z" fill="#00ABE1"/>
<path d="M97.2185 280.978C95.3861 278.329 90.9252 274.198 86.3148 267.36C76.9551 253.478 73.1514 252.524 66.8047 249.07C80.8443 251.632 93.5697 265.401 97.2185 280.978Z" fill="#00ABE1"/>
<path d="M187.945 297.454C196.002 283.59 208.834 272.063 216.703 263.021C205.148 267.592 189.778 283.226 187.945 297.454Z" fill="#00ABE1"/>
<path d="M180.147 296.637C181.344 291.558 180.377 294.691 183.144 283.772C188.262 265.119 195.88 254.112 198.755 249.07C185.885 258.658 177.973 278.837 180.147 296.637Z" fill="#2781B5"/>
<path d="M229.844 344.851C230.106 336.387 231.254 326.235 235.875 318.7C241.901 308.874 252.597 302.69 262.325 302.275C246.239 311.825 238.407 324.778 229.844 344.851Z" fill="#00ABE1"/>
<path d="M234.578 354.239C236.678 346.962 238.713 337.067 244.622 330.732C260.601 313.585 289.465 305.171 307.437 313.817C288.632 310.985 266.68 324.66 250.808 338.731C244.29 344.513 237.885 348.212 234.578 354.239Z" fill="#00ABE1"/>
<path d="M248.727 348.079C253.828 343.038 258.439 337.01 264.615 333.4C276.539 326.424 290.861 324.93 301.722 332.282C278.943 328.754 263.974 342.309 248.727 348.079Z" fill="#2781B5"/>
<path d="M388.45 461.81C379.598 488.494 363.608 511.255 343.542 527.918C343.991 515.041 332.676 466.362 271.01 439.132C262.489 435.371 318.765 401.497 322.75 392.588C327.895 381.073 334.76 368.126 345.77 366.839C353.511 365.929 360.969 371.548 365.548 378.944C370.126 386.341 372.364 395.332 374.528 404.115C377.749 417.225 380.976 430.348 384.197 443.464C385.677 449.498 387.163 455.632 388.455 461.804L388.45 461.81Z" fill="#00ABE1"/>
<path d="M481.907 526.926C474.433 540.187 464.897 551.488 453.544 560.103C447.107 552.141 441.567 543.326 435.375 535.089C440.311 528.289 445.584 521.25 450.52 514.62C451.584 513.189 453.085 511.418 454.143 511.091C457.642 510.024 476.388 525.018 481.907 526.926Z" fill="#DE9D73"/>
<path d="M448.394 525.59C423.985 492.985 380.819 419.499 346.26 394.341C304.755 364.128 251.589 377.677 207.76 362.351C191.557 356.688 209.069 332.766 211.612 323.725C239.216 330.832 260.681 343.565 295.657 345.555C329.052 347.452 346.238 350.641 378.506 374.525C399.998 390.435 456.349 464.831 478.514 489.431C470.047 502.962 458.155 513.767 448.394 525.59Z" fill="#446EB1"/>
<path d="M338.987 456.191C348.245 468.026 349.971 476.741 360.575 490.303C371.698 504.53 419.603 542.372 436.426 551.582C445.043 542.516 451.149 530.951 462.266 525.024C440.203 493.279 423.631 476.772 396.358 443.533C384.749 429.381 377.42 398.665 351.216 379.12C338.533 369.658 289.555 359.851 264.809 363.982C259.894 364.805 205.52 358.061 199.307 350.571C193.58 343.664 223.027 334.341 223.876 323.585C224.613 314.23 220.158 315.122 214.938 309.703C179.888 336.174 167.547 344.87 152.391 388.808C161.392 400.825 171.879 413.59 188.216 421.557C237.937 445.806 292.402 396.65 338.987 456.184V456.191Z" fill="#547DBF"/>
<path d="M494.136 500.537C486.571 513.76 477.249 524.377 465.998 533.167C459.742 524.747 453.689 516.127 447.391 507.745C452.477 500.939 457.781 493.863 462.867 487.207C463.962 485.776 465.389 484.043 466.586 483.716C470.55 482.649 488.334 498.302 494.136 500.53V500.537Z" fill="#DE9D73"/>
<path d="M466.574 555.857C474.396 554.363 481.431 550.639 488.558 546.182C495.685 541.724 502.72 536.594 510.307 532.72C513.085 531.301 516.386 530.158 519.303 532.042C519.522 541.052 515.98 548.869 509.991 554.162C504.008 559.455 497.319 561.307 490.364 562.625C483.413 563.944 476.992 564.051 470.266 565.859C466.35 566.914 462.862 568.684 458.716 568.283C454.33 567.856 451.028 566.016 447.946 561.533C446.893 560.007 444.398 553.49 446.29 551.148C447.038 550.225 449.41 553.025 450.713 553.559C455.762 555.65 460.89 556.931 466.564 555.844L466.574 555.857Z" fill="#446EB1"/>
<path d="M498.893 558.206C491.815 561.848 485.024 562.927 477.721 564.045C470.419 565.163 463.677 566.148 456.742 569.037C471.028 571.36 484.49 567.442 498.321 563.141C504.145 561.326 510.406 559.399 516.181 556.234C521.956 553.064 527.597 548.374 531.545 542.308C533.661 539.056 535.215 534.705 532.961 531.22C531.048 528.269 527.651 528.665 524.835 529.644C522.02 530.624 519.247 532.733 517.158 535.144C515.07 537.555 514.856 540.318 513.467 543.256C510.278 550 504.716 555.211 498.888 558.206H498.893Z" fill="#FEFAF7"/>
<path d="M458.457 523.002C466.482 520.22 473.229 515.273 479.239 508.58C482.327 505.139 484.832 500.97 488.839 498.986C492.654 497.096 496.233 497.535 500.389 498.421C511.945 500.869 523.222 505.56 535.205 503.306C537.978 502.784 540.799 501.654 543.577 501.792C546.355 501.937 549.325 502.879 550.436 506.143C551.985 510.689 549.464 514.978 546.611 518.086C542.278 522.807 536.797 526.612 531.647 529.789C517.207 538.692 502.328 546.39 487.461 553.868C482.963 556.128 479.373 558.42 474.372 558.294C468.036 558.137 461.476 555.167 458.821 547.432C456.331 540.18 457.64 530.75 458.457 522.995V523.002Z" fill="#446EB1"/>
<path d="M459.154 546.214C461.253 542.077 464.443 539.835 467.883 537.864C478.14 532 487.5 527.002 498.147 521.558C511.722 514.62 526.269 507.28 541.046 503.501C543.883 502.772 547.051 502.163 549.882 503.124C552.714 504.085 555.219 506.54 555.134 510.231C555.038 514.338 552.164 516.981 549.45 519.298C535.325 531.34 516.781 535.742 501.289 543.333C491.769 547.998 486.854 557.485 476.826 558.684C471.772 559.287 467.525 558.514 462.712 557.918C460.5 557.642 459.239 557.617 458.256 555.061C457.273 552.506 457.968 548.575 459.165 546.221L459.154 546.214Z" fill="#FEFAF7"/>
<path d="M476.383 547.263C473.151 548.33 470.213 548.813 467.12 550.559C464.021 552.304 461.59 554.929 459.961 558.589C464.272 563.11 469.214 564.027 474.754 562.488C480.294 560.95 484.482 557.798 489.771 555.167C500.456 549.849 511.653 547.652 522.958 543.458C534.267 539.264 545.721 532.972 553.585 521.834C555.444 519.203 557.106 515.141 554.21 512.579C552.111 510.721 548.756 512.259 546.405 512.931C540.272 514.689 534.027 517.232 528.348 520.101C516.792 525.934 505.771 533.28 494.531 539.377C488.323 542.742 482.783 545.153 476.383 547.269V547.263Z" fill="#446EB1"/>
<path d="M422.711 476.08C427.049 480.13 447.857 528.438 451.522 525.782C455.187 523.126 459.477 512.854 463.986 508.177C468.495 503.505 473.645 495.569 478.479 490.559C465.011 474.052 440.95 471.968 422.711 476.08Z" fill="#446EB1"/>
<path d="M115.68 214.336C117.79 214.901 118.5 214.6 119.061 214.832C127.321 218.223 126.979 218.813 151.131 229.851C153.674 214.581 157.366 199.581 162.158 185.078C154.876 183.502 147.573 181.919 140.18 181.499C134.196 181.16 128.133 181.593 122.32 183.382C121.375 183.671 119.238 183.941 118.575 184.845C117.833 185.856 118.057 188.336 117.961 189.611C117.662 193.428 117.363 197.246 117.069 201.069C116.721 205.489 116.032 209.928 115.69 214.349L115.68 214.336Z" fill="#DE9D73"/>
<path d="M210.227 298.377C214.463 306.621 218.903 315.116 225.645 320.597C232.077 325.821 238.712 335.76 246.368 337.606C252.271 339.025 259.43 332.47 265.328 333.889C269.74 334.95 274.158 336.017 278.571 337.078C278.705 336.476 278.833 335.867 278.967 335.264C281.119 336.777 283.272 338.29 285.425 339.797C286.275 338.083 287.124 336.363 287.974 334.649C289.582 336.137 291.745 336.764 293.759 336.319C294.753 330.323 296.035 328.081 292.349 323.774C287.926 318.607 280.062 316.221 273.982 317.841C262.245 320.961 249.632 319.335 238.744 313.301C227.857 307.267 218.769 296.864 213.347 284.237C209.308 274.825 207.882 263.819 202.614 255.286C185.813 228.081 168.247 226.298 161.607 224.238C158.305 229.757 183.115 245.623 186.058 251.368C194.088 267.052 202.171 282.705 210.227 298.37V298.377Z" fill="#F3D078"/>
<path d="M132.789 362.621C112.055 329.319 82.0156 237.418 82.0156 237.418C99.6666 220.497 116.1 211.757 127.65 212.523C134.995 213.006 143.292 215.6 151.327 219.147C168.887 226.889 185.181 239.195 187.542 244.086C190.988 251.225 194.45 258.282 197.34 265.753C209.996 298.497 228.652 326.324 254.829 344.952C243.936 356.091 245.934 355.137 198.986 375.448C190.395 379.165 154.65 411.494 151.914 399.294C147.427 386.166 136.625 368.78 132.789 362.627V362.621Z" fill="#CE4F37"/>
<path d="M295.512 364.466L219.534 362.225C218.941 362.206 218.679 359.839 219.24 359.613L292.152 331.328C292.884 331.033 293.648 330.876 294.422 330.876L358.69 330.662L295.512 364.466Z" fill="#B9D2ED"/>
<path d="M295.584 362.927L219.606 360.686C219.013 360.667 218.884 359.694 219.445 359.468L292.229 329.789C292.961 329.493 293.725 329.337 294.499 329.337L358.767 329.123L295.589 362.927H295.584Z" fill="#F2F8FE"/>
<path d="M295.926 359.117L251.297 357.805C250.949 357.792 250.875 357.221 251.201 357.089L293.955 339.653C294.383 339.477 294.831 339.389 295.285 339.389L333.04 339.264L295.926 359.123V359.117Z" fill="#3E639F"/>
<path d="M292.385 322.066C287.962 316.899 280.077 316.227 273.992 317.84C271.347 318.544 268.665 319.002 265.962 319.228C265.412 324.025 264.45 328.734 263.312 333.399C263.986 333.562 264.664 333.725 265.337 333.889C269.75 334.95 274.168 336.017 278.581 337.078C278.714 336.475 278.843 335.866 278.976 335.264C281.129 336.777 287.818 339.458 289.276 339.483C291.36 338.981 290.211 335.496 289.335 332.997C290.216 335.496 292.968 337.323 294.982 336.884C296.616 336.526 296.066 326.373 292.38 322.066H292.385Z" fill="#DE9D73"/>
<path d="M132.668 233.029C123.698 224.873 123.517 223.906 115.68 214.338C120.36 212.818 124.484 212.31 127.641 212.523C134.987 213.006 143.283 215.6 151.318 219.147C155.432 225.834 156.976 226.951 158.071 233.739C160.112 246.396 143.54 242.912 132.663 233.029H132.668Z" fill="#DE9D73"/>
<path d="M179.871 155.624C179.78 156.66 179.673 157.677 179.555 158.7C179.523 158.983 179.491 159.266 179.454 159.554C177.734 173.763 173.893 187.614 168.176 200.278C168.134 200.366 168.102 200.454 168.059 200.541C167.797 201.119 167.535 201.697 167.268 202.262C166.317 204.29 165.308 206.28 164.26 208.245C162.07 212.339 159.613 216.351 156.268 219.158C150.413 224.074 142.336 224.557 135.647 221.456C128.948 218.335 123.584 211.981 120.005 204.635C116.415 197.302 114.497 188.989 113.273 180.644C112.894 178.014 112.574 175.377 112.328 172.721C111.954 168.74 111.729 164.734 111.655 160.722C111.585 156.647 111.681 152.61 111.943 148.567C112.408 141.089 113.396 133.674 114.737 126.315C114.764 126.171 114.791 126.033 114.823 125.901C115.336 123.49 116.383 121.512 117.782 119.898C121.169 115.987 126.602 114.26 131.341 113.984C137.917 113.582 144.398 115.51 150.899 116.703C157.887 117.99 165.366 118.605 171.056 123.546C175.527 127.445 178.284 133.624 179.427 140.034C180.341 145.145 180.314 150.413 179.86 155.63L179.871 155.624Z" fill="#DE9D73"/>
<path d="M179.71 158.217C179.838 157.595 179.892 156.698 179.875 155.624C179.763 149.854 177.584 138.923 175.473 137.661C173.689 136.581 170.532 138.935 168.812 139.438C154.419 143.663 140.054 128.563 136.939 133.893C134.85 137.472 140.316 141.955 139.237 146.105C137.848 151.398 130.87 148.579 127.783 151.75C124.583 155.046 123.365 168.457 128.349 180.751C130.732 186.615 135.102 189.259 137.158 195.28C137.313 195.726 137.458 196.165 137.602 196.611C138.237 198.595 138.772 200.642 139.327 202.67C140.3 206.161 141.357 209.595 143.152 212.584C145.989 217.299 151.449 220.526 155.611 217.462C161.156 213.394 163.672 208.509 167.177 202.168C167.465 201.64 167.764 201.1 168.069 200.548C167.807 201.125 167.545 201.703 167.278 202.268C166.327 204.296 165.318 206.286 164.271 208.252C162.08 212.345 159.623 216.357 156.278 219.164C150.423 224.08 142.346 224.564 135.657 221.462C128.958 218.341 123.594 211.987 120.015 204.641C116.425 197.308 114.507 188.995 113.284 180.651C112.904 178.02 112.584 175.383 112.338 172.727C111.964 168.746 111.74 164.74 111.665 160.728C111.59 156.434 111.59 152.365 111.67 148.611C111.884 138.439 112.696 130.415 114.251 125.819C115.212 122.956 121.083 112.91 128.552 107.479C138.943 99.9384 157.08 101.923 166.856 110.524C175.089 117.77 184.502 142.2 179.715 158.23L179.71 158.217Z" fill="#4C3B34"/>
<path d="M119.267 175.063C115.522 175.754 111.061 172.621 109.228 168.715C107.396 164.816 107.171 160.139 107.54 155.706C107.727 153.433 108.165 150.959 109.698 149.553C111.563 147.845 114.405 148.479 116.237 150.231C118.07 151.989 119.128 154.595 120.127 157.112L119.267 175.063Z" fill="#DE9D73"/>
<path d="M78.7617 263.599C80.6475 298.578 104.175 332.539 118.754 343.294C130.203 351.739 159.751 361.779 185.234 361.32C196.432 361.12 213.287 358.878 227.871 357.233C234.912 356.442 243.369 357.095 248.749 356.838C265.497 356.04 266.902 342.824 272.746 346.528C277.111 349.291 277.864 353.887 280.685 357.641C281.353 358.533 282.432 359.449 283.527 359.01C285.018 358.413 285.424 357.208 284.232 351.582C285.386 354.226 287.331 357.308 289.596 356.185C290.868 355.557 290.504 352.537 289.634 350.132C290.43 351.965 291.947 354.018 293.229 353.811C294.292 353.642 294.399 352.75 294.479 351.545C294.885 345.517 288.613 329.048 281.166 325.639C273.895 322.311 266.854 325.174 259.519 328.282C252.179 331.39 244.224 337.506 236.44 336.865C209.574 334.642 152.63 315.449 142.303 307.839C135.599 302.898 128.776 270.06 114.817 247.193C106.953 234.309 97.7803 224.835 85.7601 233.204C77.9016 238.679 78.2488 253.817 78.7777 263.599H78.7617Z" fill="#DE9D73"/>
<path d="M232.068 336.388C203.845 332.702 152.078 315.059 142.28 307.839C135.575 302.898 128.753 270.06 114.794 247.193C106.93 234.309 97.7569 224.835 85.7367 233.204C77.8781 238.679 78.2254 253.817 78.7543 263.599C80.6401 298.578 104.168 332.539 118.747 343.294C130.195 351.739 159.744 361.779 185.227 361.32C196.424 361.12 213.279 358.878 227.864 357.233C228.676 357.139 229.509 357.07 230.353 357.013C230.957 350.138 231.694 343.282 232.073 336.388H232.068Z" fill="#F3D078"/>
<path d="M339.606 354.908L295.799 364.414C294.463 364.703 289.757 365.431 290.905 362.236L326.181 276.551C327.345 273.725 329.6 269.267 332.223 268.702L381.565 258.179C382.9 257.891 384.861 261.764 384.273 263.202L345.627 349.521C344.462 352.347 342.224 354.35 339.601 354.915L339.606 354.908Z" fill="#00ABE1"/>
<path d="M342.972 354.273L296.061 364.37C294.726 364.658 293.678 363.038 294.271 361.601L329.547 275.916C330.711 273.09 332.95 271.087 335.573 270.522L382.484 260.426C383.819 260.138 384.866 261.757 384.273 263.195L348.998 348.88C347.833 351.705 345.595 353.708 342.972 354.273Z" fill="#BDEFFF"/>
<path d="M99.6031 373.438C132.891 388.192 163.401 379.823 195.92 406.922C222.802 429.324 220.831 448.882 271.006 446.484C281.13 446 268.207 469.52 265.044 472.59C261.881 475.667 257.805 477.073 253.825 478.254C224.036 487.106 192.981 487.59 162.258 488.029C143.773 488.293 124.91 488.494 107.291 481.92C89.6718 475.34 73.1801 460.698 67.6454 439.966C64.0287 426.417 65.5192 411.097 71.6468 398.86C77.7745 386.623 87.7646 376.301 99.5978 373.444L99.6031 373.438Z" fill="#62D5FA"/>
<g style="mix-blend-mode:multiply">
<g style="mix-blend-mode:multiply">
<path d="M81.8077 620.701C116.602 620.701 144.808 606.84 144.808 589.741C144.808 572.643 116.602 558.781 81.8077 558.781C47.0138 558.781 18.8077 572.643 18.8077 589.741C18.8077 606.84 47.0138 620.701 81.8077 620.701Z" fill="#14A6D3"/>
</g>
</g>
<path d="M16.8077 534.977C19.4743 518.83 22.7806 513.946 29.8587 505.19C36.9368 496.434 45.6139 491.711 54.3569 489.135C64.5813 486.122 75.2996 485.907 85.1995 491.044C95.1042 496.181 104.125 507.099 108.705 522.311C111.207 530.606 112.327 539.83 114.617 548.287C116.903 556.743 120.82 564.878 126.342 566.963C128.943 567.945 131.652 567.5 134.323 567.439C136.994 567.378 139.802 567.799 142.017 570.23C144.232 572.66 145.568 577.674 144.34 581.539C143.005 585.74 139.609 586.591 136.712 586.929C123.849 588.431 110.304 589.735 98.6691 580.672C95.1512 577.927 82.7278 573.878 79.003 572C67.4664 566.196 64.1063 579.016 52.297 574.922C45.1671 572.453 39.3306 564.28 34.2466 555.777C29.1579 547.267 23.1427 547.458 16.8077 541.578V534.977Z" fill="#3E639F"/>
<path d="M106.924 454.213C88.4503 443.031 67.4817 461.239 64.661 470.148C61.696 479.51 67.0383 488.563 71.793 495.997C80.2125 509.17 85.0686 513.822 106.181 510.319C117.78 508.391 124.628 504.951 125.077 490.296C125.569 474.223 122.053 463.367 106.924 454.213Z" fill="#547DBF"/>
<path d="M72.5934 439.322C72.9834 437.928 73.8275 436.629 75.0188 436.176C77.2305 435.341 79.3407 437.627 80.8099 439.736C84.3839 444.866 87.6641 450.278 90.6237 455.917C90.5596 455.785 81.8249 461.084 80.9862 461.442C78.6356 462.44 76.5093 462.541 74.6075 460.368C70.996 456.237 71.1616 444.427 72.5934 439.316V439.322Z" fill="#547DBF"/>
<path d="M136.209 472.523C136.77 471.211 136.957 469.591 136.385 468.285C135.322 465.862 132.458 465.723 130.145 465.993C124.53 466.653 118.958 467.758 113.472 469.296C113.595 469.252 116.586 480.259 116.966 481.213C118.029 483.875 119.471 485.708 122.126 485.746C127.164 485.821 134.152 477.333 136.209 472.523Z" fill="#547DBF"/>
<path d="M90.0929 554.586C93.2235 562.46 90.4722 572.932 84.4728 578.012C74.3918 586.544 39.7416 575.971 32.9088 571.394C34.8106 594.675 73.5837 599.207 95.8077 595C98.3077 595 104.808 594.569 104.808 600C104.808 608.595 95.8077 609 82.3077 610C70.5332 609.146 54.976 608.989 43.8105 604.5C5.13753 588.954 9.47736 546.493 20.2154 536.585C33.037 524.75 76.454 520.311 90.0929 554.58V554.586Z" fill="#547DBF"/>
</svg>
