<svg width="1512" height="259" viewBox="0 0 1512 259" fill="none" xmlns="http://www.w3.org/2000/svg">
<rect x="-6.84912" y="148.75" width="1519.16" height="110.264" fill="#00ABE1"/>
<rect width="167.966" height="164.848" rx="10" transform="matrix(0.974452 -0.22464 0.233567 0.972331 588.952 75.2261)" fill="#F5FAFF"/>
<path d="M784.704 212.313C781.027 201.173 768.272 177.436 743.696 177.94L715.152 179.192L686.963 185.7L660.83 197.022C638.589 207.299 637.905 234.134 639.654 245.719L784.703 212.315L784.704 212.313Z" fill="#CE4F37"/>
<path d="M683.135 94.8193C681.45 95.1741 674.698 96.7289 673.028 97.1464C646.701 102.671 633.445 147.723 658.694 165.235C667.319 171.833 683.76 171.304 687.442 169.309C687.831 169.095 686.708 160.672 686.893 160.503C689.233 156.946 690.522 155.543 691.969 153.839C694.04 154.733 695.831 155.427 699.545 157.59C699.787 157.659 702.614 165.692 703.06 165.712C707.264 165.893 722.223 159.191 726.943 149.52C741.581 122.824 709.216 88.2769 683.135 94.8193Z" fill="#5A5E7D"/>
<path d="M715.577 179.157C716.568 183.286 711.053 188.082 702.66 190.008C694.268 191.934 687.146 190.039 686.154 185.91L681.429 161.358L675.565 142.184L672.678 132.742C672.475 132.079 672.564 131.433 672.947 130.788C673.329 130.142 673.975 129.813 674.664 129.655L700.111 123.815C700.723 123.674 701.369 123.673 701.937 124.035C702.506 124.4 702.852 124.91 702.966 125.517L708.212 153.361L715.58 179.155L715.577 179.157Z" fill="#B17854"/>
<path d="M712.005 165.998L709.505 157.999L681.671 165.439L705.189 174.337C709.005 175.498 712.505 171.998 713.005 170.498L712.005 165.998Z" fill="#996748"/>
<path d="M690.087 128.562C690.087 128.562 690.085 128.556 690.084 128.549L690.067 128.531C690.077 128.545 690.083 128.554 690.089 128.564L690.087 128.562Z" fill="#CC8348"/>
<path d="M689.104 128.781C689.104 128.781 689.103 128.774 689.101 128.767L689.085 128.75C689.092 128.764 689.099 128.774 689.107 128.782L689.104 128.781Z" fill="#CC8348"/>
<path d="M703.491 138.299L703.981 140.342C704.226 141.338 703.964 142.716 703.521 143.624C703.077 144.534 702.16 145.415 701.333 145.609L692.137 147.775L682.919 149.849C682.092 150.036 680.869 149.648 680.057 149.027C679.248 148.405 678.386 147.286 678.15 146.289L677.66 144.247L673.968 145.097L678.353 161.738C678.761 163.463 679.695 164.957 681.094 166.028C683.572 168.858 703.407 170.964 710.322 159.271C711.086 157.702 710.989 155.609 710.573 153.889L707.186 137.449L703.491 138.299Z" fill="#B17854"/>
<path d="M675.357 142.282C678.562 144.613 681.567 149.555 679.909 151.747C678.25 153.939 672.555 152.551 669.349 150.222C666.143 147.891 666.644 145.499 668.302 143.306C669.96 141.114 672.151 139.953 675.358 142.284L675.357 142.282Z" fill="#B17854"/>
<path d="M703.82 135.679C702.012 139.163 701.571 144.898 704.053 146.137C706.535 147.376 711.003 143.649 712.812 140.165C714.62 136.68 713.084 134.756 710.602 133.518C708.12 132.279 705.628 132.195 703.82 135.68L703.82 135.679Z" fill="#B17854"/>
<path d="M671.418 140.925L674.602 144.232C675.42 144.789 676.414 144.535 675.698 142.593L674.42 138.8L671.418 140.924L671.418 140.925Z" fill="#5A5E7D"/>
<path d="M707.885 132.482L706.539 136.83C706.063 137.685 705.057 137.89 704.813 135.841L704.229 131.888L707.884 132.48L707.885 132.482Z" fill="#5A5E7D"/>
<path d="M1548.06 47.934L1361.85 3.04984C1356.48 1.75567 1351.04 5.04879 1349.69 10.4052L1303.95 192.55C1302.6 197.906 1305.86 203.298 1311.23 204.592L1497.44 249.476C1502.81 250.77 1508.26 247.477 1509.6 242.121L1555.35 59.976C1556.7 54.6195 1553.43 49.2282 1548.06 47.934Z" fill="#F5FAFF"/>
<path d="M1416 68.9996C1422.33 81.5996 1403.46 89.4981 1393.24 131.144C1373.99 198.152 1447.96 180.56 1437.17 234.327L1487.79 247.128C1491.91 231.752 1505.97 197.505 1489.46 172.196C1478.11 156.609 1473.5 146.197 1473.42 125.496C1478.24 91.6864 1456 51.4983 1416 68.9996Z" fill="#FBBC12"/>
<path d="M1456.19 109.465C1458.64 126.027 1443.82 141.951 1459.49 158.506C1489.17 184.127 1481.91 217.876 1470.84 240.856L1413.84 189.409L1431.33 124.197L1456.19 109.462L1456.19 109.465Z" fill="#FFC05A"/>
<path d="M1466.17 179.953C1466.04 179.889 1434.36 160.514 1434.36 160.514L1404.06 153.217C1404.06 153.217 1366.83 155.997 1366.69 155.997C1344.28 159.98 1335.15 187.453 1320.14 206.711L1483.52 246.056C1479.29 222.165 1484.16 193.669 1466.17 179.952L1466.17 179.953Z" fill="#62D5FA"/>
<path d="M1433.62 162.939L1438.44 131.798L1413.57 125.817L1404.2 155.879C1398.5 176.498 1428.5 185.498 1433.62 162.939Z" fill="#E38C46"/>
<path d="M1435.5 147.999L1438.48 131.63L1413.63 125.646L1411.5 132.499L1416.5 136.999L1435.5 147.999Z" fill="#C06827"/>
<path d="M1449.11 119.321C1446 117.067 1446.23 111.645 1449.63 107.214C1453.02 102.779 1458.29 101.012 1461.39 103.269C1464.5 105.521 1464.27 110.943 1460.87 115.377C1457.48 119.808 1452.21 121.574 1449.11 119.321Z" fill="#D17D3B"/>
<path d="M1456.99 123.089C1456.58 124.747 1454.86 125.761 1453.17 125.354C1451.48 124.946 1450.44 123.27 1450.86 121.612C1451.27 119.954 1452.98 118.94 1454.68 119.347C1456.37 119.755 1457.41 121.43 1456.99 123.089Z" fill="white"/>
<path d="M1444.16 78.2508C1441.95 77.6775 1439.89 77.1716 1437.92 76.7244L1437.88 76.7136C1437.83 76.6987 1437.77 76.685 1437.72 76.6719L1437.55 76.6319C1437.54 76.6308 1437.52 76.6274 1437.51 76.624C1435.55 76.1321 1433.49 75.6424 1431.26 75.1487C1424.18 73.8652 1413.19 75.9389 1410.1 88.2353C1407 95.0275 1399.99 115.797 1405.68 124.48C1409.06 131.957 1417.92 138.02 1421.54 138.998L1422.54 139.196C1426.33 139.92 1437.66 138.27 1443.47 133.571C1452.71 126.997 1457.28 106.143 1456.71 99.447C1457.49 86.8816 1450.76 80.297 1444.16 78.2513L1444.16 78.2508Z" fill="#E38C46"/>
<path d="M1455.79 62.0046C1454.39 67.5859 1448.64 70.9961 1442.94 69.6239C1437.24 68.2517 1433.75 62.6177 1435.15 57.0365C1436.55 51.4552 1442.31 48.0449 1448.01 49.4172C1453.71 50.7894 1457.19 56.4257 1455.79 62.0046Z" fill="#FBBC12"/>
<path d="M1448.57 78.8381C1443.39 85.8918 1440.62 83.4713 1423.05 91.3795C1390.39 110.12 1418.45 179.21 1381.91 220.972L1334.05 209.478C1349.23 193.31 1378.1 164.297 1378.84 135.458C1379.61 101.628 1391.34 76.637 1418.22 68.1793L1448.57 78.8358L1448.57 78.8381Z" fill="#FBBC12"/>
<rect width="195.445" height="191.973" rx="10" transform="matrix(0.973257 -0.229764 0.238871 0.971042 953.689 63.7026)" fill="#F5FAFF"/>
<path d="M1050.37 90.0853C1045.28 94.0643 1041.71 99.3791 1039.18 105.157C1035.05 113.414 1036.43 125.693 1040.15 131.283C1060.74 159.512 1097.31 139.901 1098.44 117.899C1100.27 109.345 1091.48 96.136 1086.16 92.021C1083.83 90.1013 1081.22 88.4076 1078.45 87.1291C1075.02 85.5398 1071.46 84.8268 1067.68 84.5615C1061.59 84.1337 1055.1 86.3934 1050.37 90.0873L1050.37 90.0853Z" fill="#785E8A"/>
<path d="M1083.34 129.036C1098.37 134.713 1108.73 142.95 1112.66 151.01C1106.06 162.768 1097.28 165.263 1089.66 168.173C1080.66 155.802 1079.83 144.305 1079.2 132.689L1083.34 129.036Z" fill="#785E8A"/>
<path d="M1126.38 162.059C1126.25 162.056 1092.4 158.945 1092.4 158.945L1064.9 165.432C1064.9 165.432 1036.19 183.298 1036.08 183.357C1019.77 195.993 1024.31 222.856 1020.53 245.128L1168.85 210.147C1155.16 191.994 1146.76 166.042 1126.38 162.06L1126.38 162.059Z" fill="#CE4F37"/>
<path d="M1092.44 161.225L1085 141L1061.18 142.191L1065.76 167.535C1088 191 1088 191 1092.45 161.226L1092.44 161.225Z" fill="#EFB077"/>
<path d="M1088.43 149.999L1083.5 136.724L1060.93 142.044L1061.43 144.998L1075.43 148.999L1088.43 149.999Z" fill="#D08D55"/>
<path d="M1052.88 126.702C1054.17 128.526 1053.7 131.027 1051.84 132.287C1049.98 133.547 1047.42 133.092 1046.14 131.268L1042.6 126.247C1041.31 124.423 1041.77 121.922 1043.64 120.662C1045.5 119.402 1048.05 119.858 1049.34 121.681L1052.88 126.702Z" fill="#D08D55"/>
<path d="M1085.44 118.96C1085.14 121.157 1086.72 123.176 1088.96 123.469C1091.2 123.762 1093.27 122.22 1093.56 120.022L1094.38 113.974C1094.68 111.776 1093.1 109.757 1090.86 109.464C1088.62 109.171 1086.56 110.714 1086.26 112.911L1085.44 118.96Z" fill="#D08D55"/>
<path d="M1062.99 96.7947C1058.38 104.954 1053.14 112.766 1046.36 119.73C1049.87 128.63 1055.49 140.303 1058.16 142.079C1063.57 146.162 1072.44 147.724 1075.84 146.957L1076.74 146.745C1080.06 145.664 1086.79 139.776 1089.23 133.537C1090.43 130.958 1088.88 119.501 1087.38 110.481C1078.98 106.912 1070.85 102.371 1062.99 96.7922L1062.99 96.7947Z" fill="#EFB077"/>
<path d="M1049.56 130.378C1049.7 130.946 1049.34 131.519 1048.76 131.655C1048.18 131.792 1047.6 131.442 1047.46 130.873C1047.32 130.305 1047.68 129.732 1048.26 129.596C1048.84 129.459 1049.42 129.809 1049.56 130.378Z" fill="white"/>
<path d="M1092.14 120.276C1092.28 120.845 1091.93 121.417 1091.35 121.554C1090.77 121.691 1090.18 121.34 1090.04 120.772C1089.9 120.203 1090.26 119.631 1090.84 119.494C1091.42 119.357 1092 119.708 1092.14 120.276Z" fill="white"/>
<path d="M1310.15 67.6598L1179.69 75.8135C1174.18 76.158 1170 80.9049 1170.36 86.4161L1178.66 213.847C1179.02 219.358 1183.78 223.546 1189.29 223.202L1319.74 215.048C1325.25 214.704 1329.43 209.957 1329.07 204.446L1320.78 77.0148C1320.42 71.5037 1315.66 67.3152 1310.15 67.6598Z" fill="#F5FAFF"/>
<path d="M1322.17 214.642C1322.21 214.536 1322.24 214.429 1322.22 214.313C1321.38 206.136 1312.77 179.902 1291.16 176.603L1266.75 173.477C1266.12 173.396 1265.48 173.375 1264.85 173.416L1240.92 174.929C1240.29 174.969 1239.66 175.068 1239.05 175.225L1216.04 181.154C1215.51 181.29 1214.98 181.469 1214.49 181.705C1193.64 191.641 1190.51 223.001 1191 223.003L1321.6 215.026C1321.85 215.011 1322.06 214.863 1322.17 214.642Z" fill="#9F73C2"/>
<path d="M1238.48 156.155C1238.48 156.155 1238.48 156.155 1238.48 156.156L1239.57 174.277C1239.84 178.764 1244.78 182.133 1252.34 181.705C1259.91 181.277 1264.41 177.373 1264.15 172.886L1263.66 164.738C1263.33 159.228 1258.59 155.016 1253.08 155.328L1238.48 156.155Z" fill="#F29E57"/>
<path d="M1257.97 173.943C1261.16 174.986 1264.17 173.586 1263.97 170.24L1263.48 162.092C1263.15 156.582 1258.42 152.37 1252.91 152.682L1245.5 153.101C1241.53 153.326 1238.5 156.729 1238.74 160.699C1238.88 163.055 1240.17 165.195 1242.18 166.426L1249.5 170.891C1250.16 171.296 1250.87 171.623 1251.61 171.864L1257.97 173.943Z" fill="#D38448"/>
<path d="M1249.13 118.348C1249.13 118.351 1249.14 118.35 1249.14 118.347C1249.13 118.346 1249.13 118.345 1249.13 118.344C1249.13 118.344 1249.13 118.344 1249.13 118.344C1249.13 118.341 1249.13 118.343 1249.13 118.345C1249.13 118.346 1249.13 118.347 1249.13 118.348Z" fill="#CF8548"/>
<path d="M1249.95 125.873C1249.95 125.875 1249.95 125.874 1249.95 125.872C1249.95 125.871 1249.95 125.87 1249.95 125.87L1249.95 125.87C1249.95 125.868 1249.95 125.871 1249.95 125.873Z" fill="#CF8548"/>
<path d="M1249.61 125.908C1249.61 125.908 1249.61 125.908 1249.61 125.907C1249.61 125.906 1249.61 125.901 1249.61 125.895C1249.61 125.894 1249.61 125.893 1249.61 125.892L1249.6 125.873C1249.6 125.887 1249.61 125.896 1249.61 125.907C1249.61 125.907 1249.61 125.908 1249.61 125.908Z" fill="#CF8548"/>
<path d="M1277.36 126.453C1276.82 126.037 1276.61 125.318 1276.84 124.678C1277.72 122.172 1277.7 120.084 1277.11 118.415C1275.62 114.217 1272.07 109.596 1268.55 106.856C1267.37 105.93 1265.91 105.346 1264.37 105.097C1260.08 104.401 1255.21 103.975 1251.05 102.704C1246.65 101.359 1241.97 102.1 1238.52 105.178C1237.06 106.488 1235.17 107.351 1233.2 107.375C1229.37 107.419 1226.14 109.877 1224.33 113.008C1223.72 114.073 1223.39 115.263 1223.33 116.475C1223.17 119.417 1222.54 122.756 1221.11 125.33C1219.66 127.938 1219.44 130.834 1220.25 133.655C1220.52 134.605 1220.87 135.473 1221.31 136.269C1223.72 140.695 1225.02 146.299 1227.54 150.669C1228.86 152.976 1231.62 154.19 1235.11 154.6C1242.4 155.456 1267.72 152.555 1268.96 152.475C1272.68 152.234 1275.88 150.091 1276.86 146.805C1277.7 143.987 1278.56 140.675 1279.89 138.049C1281.75 134.349 1281.48 129.416 1277.36 126.453Z" fill="#444869"/>
<path d="M1239.76 138.528C1240.34 141.047 1238.72 143.55 1236.16 144.119C1233.59 144.687 1231.03 143.106 1230.45 140.587L1228.9 133.865C1228.32 131.346 1229.94 128.843 1232.51 128.274C1235.08 127.706 1237.63 129.287 1238.21 131.806L1239.76 138.528Z" fill="#D67F43"/>
<path d="M1261.8 137.14C1261.55 139.711 1263.48 141.992 1266.1 142.233C1268.72 142.475 1271.05 140.588 1271.3 138.017L1271.96 131.156C1272.2 128.585 1270.28 126.304 1267.65 126.062C1265.03 125.82 1262.7 127.708 1262.46 130.279L1261.8 137.14Z" fill="#D67F43"/>
<path d="M1263.96 121.303C1263.96 121.304 1263.96 121.304 1263.96 121.304C1247.4 125.939 1245.26 116.946 1238.26 120.261C1235.92 121.369 1234.76 123.936 1234.56 126.516C1233.93 134.722 1233.73 145.769 1235.4 153.883C1237.44 162.537 1243.17 168.744 1251.58 167.946C1252.13 167.894 1252.67 167.86 1253.22 167.843C1261.67 167.581 1266.54 160.707 1267.43 151.869C1268.11 142.41 1265.83 129.592 1263.96 121.304C1263.96 121.303 1263.96 121.303 1263.96 121.303Z" fill="#F29E57"/>
<rect width="155.759" height="151.976" rx="10" transform="matrix(0.994102 0.108457 -0.11294 0.993601 134.893 60.1479)" fill="#F5FAFF"/>
<path d="M231.811 182.787C231.729 182.754 210.298 170.407 210.298 170.407L191.799 168.931C191.799 168.931 168.085 175.803 167.997 175.817C154.341 180.498 150.77 199.725 142.91 213.882L247.72 225.329C243.237 209.824 244.079 190.299 231.809 182.786L231.811 182.787Z" fill="#31CE5D"/>
<path d="M210.227 172.6L210 158.507L194.062 156.763L191.376 170.547C194.297 175.435 203.753 177.789 210.228 172.601L210.227 172.6Z" fill="#EFB077"/>
<path d="M209.907 171L209.907 158.364L193.97 156.62L192.924 162.969L209.907 171Z" fill="#D08D55"/>
<path d="M192.394 144.813C192.793 146.286 191.89 147.793 190.379 148.18C188.867 148.567 187.319 147.687 186.92 146.214L185.823 142.159C185.424 140.686 186.327 139.179 187.839 138.792C189.35 138.405 190.899 139.285 191.298 140.758L192.394 144.813Z" fill="#D08D55"/>
<path d="M215.421 147.331C214.7 148.682 215.241 150.348 216.628 151.052C218.015 151.756 219.724 151.232 220.445 149.882L222.428 146.164C223.149 144.813 222.608 143.148 221.221 142.444C219.834 141.74 218.125 142.263 217.404 143.614L215.421 147.331Z" fill="#D08D55"/>
<path d="M206.151 127.846C201.2 132.058 195.467 124.345 189.847 138.84C189.992 145.392 190.843 154.219 192.153 155.979C194.687 159.856 200.071 162.898 202.468 163.185L203.104 163.255C205.516 163.317 211.301 161.06 214.386 157.592C215.784 156.202 217.524 148.448 218.712 142.279C218.698 132.927 209.919 133.25 206.152 127.845L206.151 127.846Z" fill="#EFB077"/>
<path d="M189.339 146.432C189.293 146.831 188.924 147.118 188.514 147.074C188.105 147.029 187.81 146.668 187.855 146.269C187.901 145.87 188.27 145.583 188.679 145.628C189.089 145.672 189.384 146.033 189.339 146.432Z" fill="white"/>
<path d="M219.461 149.725C219.415 150.124 219.046 150.411 218.637 150.366C218.227 150.322 217.932 149.961 217.978 149.562C218.023 149.163 218.392 148.876 218.802 148.921C219.211 148.965 219.507 149.326 219.461 149.725Z" fill="white"/>
<path d="M221.934 128.583C219.16 127.492 216.343 124.719 213.583 121.489C208.416 114.82 198.251 114.459 194.392 124.332C186.658 123.092 186.763 129.562 186.683 138.361L187.88 140.267L189.776 145.001C190.859 138.36 193.013 134.562 194.7 132.545C202.01 125.667 207.435 135.032 216.318 136.864C217.22 139.298 218.309 143.056 217.619 148.106L220.923 144.385L222.808 142.144C227.518 131.983 225.657 129.845 221.935 128.584L221.934 128.583Z" fill="#524F54"/>
<rect width="208.796" height="204.744" rx="10" transform="matrix(0.99182 0.127658 -0.132913 0.991126 793.022 11.9019)" fill="#F5FAFF"/>
<path d="M945.601 237.944C946.182 225.926 942.682 198.568 918.826 190.3L890.87 181.335L861.312 177.55L831.951 179.125C806.727 181.08 796.137 206.631 793.533 218.388L945.599 237.945L945.601 237.944Z" fill="#31CE5D"/>
<path d="M866.695 156.893L863.884 176.952C863.188 181.918 867.853 186.65 876.221 187.783C884.59 188.917 890.383 185.598 891.079 180.632L893.89 160.573L866.693 156.893L866.695 156.893Z" fill="#F29E57"/>
<path d="M870 166.998C875.5 172.998 891.757 174.234 892 172.498L894.287 157.649L867.091 153.969L866.002 161.499L870 166.998Z" fill="#E28C4B"/>
<path d="M888.393 114.189C888.393 114.189 888.394 114.18 888.393 114.168L888.381 114.136C888.387 114.158 888.389 114.171 888.393 114.189Z" fill="#CF8548"/>
<path d="M887.565 123.606C887.565 123.606 887.566 123.597 887.567 123.588L887.556 123.558C887.561 123.578 887.563 123.591 887.565 123.605L887.565 123.606Z" fill="#CF8548"/>
<path d="M887.126 123.548C887.126 123.548 887.128 123.539 887.125 123.529L887.116 123.5C887.119 123.519 887.123 123.533 887.127 123.546L887.126 123.548Z" fill="#CF8548"/>
<path d="M871.01 136.934C871.102 139.883 868.682 142.332 865.605 142.402C862.527 142.473 859.957 140.139 859.866 137.192L859.619 129.323C859.527 126.373 861.947 123.926 865.025 123.855C868.102 123.783 870.672 126.117 870.763 129.067L871.01 136.936L871.01 136.934Z" fill="#D67F43"/>
<path d="M896.523 140.648C895.654 143.473 897.345 146.452 900.299 147.299C903.253 148.148 906.352 146.545 907.22 143.719L909.537 136.181C910.405 133.355 908.716 130.376 905.762 129.529C902.808 128.68 899.709 130.284 898.841 133.109L896.523 140.648Z" fill="#D67F43"/>
<path d="M902.996 120.725C882.977 112.381 883.83 104.967 869.418 115.673C866.538 124.739 863.04 137.61 863.121 148.72C863.504 159.186 868.498 169 879.498 167.5C888.498 172 897.184 163.528 900.317 153.516C903.257 143.072 903.252 130.418 902.995 120.725L902.996 120.725Z" fill="#F29E57"/>
<path d="M907.563 110.585C899.444 98.4674 878.286 93.4332 873.927 105.76C864.668 104.005 864.266 114.004 863.847 124.64C864.137 124.599 864.957 125.255 866.459 125.452L865.439 132.122L868.627 132.637C870.162 124.731 871.883 118.143 873.988 115.761C883.035 107.686 889.223 119.139 899.841 121.649C900.837 124.623 900.607 130.398 899.578 136.583L902.78 136.996L903.077 129.217L905.958 129.702C911.246 120.461 911.317 115.806 907.565 110.586L907.563 110.585Z" fill="#FBBC12"/>
<path d="M889.024 149.545C888.864 150.739 887.734 151.518 886.489 151.358L877.659 150.223C876.414 150.062 875.528 149.024 875.687 147.829C875.847 146.635 876.979 145.856 878.223 146.016L887.052 147.151C888.297 147.312 889.184 148.35 889.024 149.545Z" fill="#F29E57"/>
<path d="M625.929 88.5629L496.778 68.5721C491.32 67.7273 486.182 71.4625 485.303 76.9149L464.953 203.097C464.073 208.549 467.785 213.654 473.243 214.499L602.394 234.49C607.852 235.334 612.989 231.599 613.869 226.147L634.219 99.9649C635.098 94.5126 631.387 89.4077 625.929 88.5629Z" fill="#F5FAFF"/>
<path d="M601.363 234.126L593.454 189.742C592.358 184.429 587.892 180.408 581.971 178.61C581.881 178.564 581.788 178.537 581.696 178.493L509.515 167.394C509.369 167.416 509.224 167.432 509.077 167.458C503.177 167.574 497.987 170.038 495.382 174.576L473.911 214.41L601.361 234.126L601.363 234.126Z" fill="#B2ECFF"/>
<path d="M594.145 184.429C588.052 169.914 572.153 167.238 574.079 149.842C578.042 141.827 579.441 134.358 579.748 127.127C579.912 115.625 575.411 104.623 571.048 101.291C566.826 97.1037 554.757 93.3197 545.967 97.0341C537.161 101.31 531.357 108.859 528.434 119.161C526.223 126.641 525.827 134.023 527.693 142.721C523.609 158.841 508.075 157.78 497.911 169.489C494.766 173.597 491.864 177.939 490.43 183.715C518.703 207.569 552.303 217.794 596.763 200.225C597.225 194.298 595.837 189.29 594.145 184.431L594.145 184.429Z" fill="#62D5FA"/>
<path d="M538.374 142.285C539.73 153.004 537.222 167.97 545.506 171.073C552.181 172.88 556.759 158.511 561.862 146.901L538.372 142.285L538.374 142.285Z" fill="#427F93"/>
<path d="M534.875 138.534C532.316 138.136 530.709 134.866 531.296 131.245C531.882 127.624 534.441 125.003 537.002 125.4C539.563 125.798 541.168 129.067 540.581 132.687C539.995 136.306 537.436 138.931 534.875 138.534ZM536.756 126.917C534.787 126.611 533.23 128.691 532.779 131.476C532.328 134.26 533.151 136.711 535.121 137.017C537.09 137.323 538.492 135.218 538.943 132.432C539.394 129.646 538.724 127.222 536.756 126.917Z" fill="#FBBC12"/>
<path d="M567.246 143.561C564.685 143.163 563.08 139.894 563.666 136.273C564.253 132.652 566.812 130.03 569.372 130.427C571.933 130.825 573.538 134.095 572.952 137.714C572.366 141.333 569.807 143.958 567.246 143.561ZM569.127 131.944C567.157 131.638 565.601 133.719 565.15 136.503C564.699 139.287 565.522 141.739 567.491 142.044C569.461 142.35 570.862 140.246 571.314 137.46C571.765 134.674 571.095 132.249 569.127 131.944Z" fill="#FBBC12"/>
<path d="M556.519 105.936C554.864 104.503 538.926 108.107 538.041 117.003C537.166 122.242 536.628 139.613 538.365 142.286C540.849 146.692 546.591 150.498 549.243 151.033L549.955 151.117C552.646 151.411 559.303 149.558 563.058 146.121C565.554 144.104 570.528 127.423 571.351 122.176C573.5 113.883 560.867 106.341 556.519 105.938L556.519 105.936Z" fill="#F4A762"/>
<path d="M538.447 115.169C542.481 116.936 544.309 114.696 548.662 110.958C552.589 107.186 561.782 108.377 564.293 113.673C566.566 118.022 566.565 119.897 571.428 120.088C573.681 101.457 541.684 97.5563 538.447 115.169Z" fill="#427F93"/>
<rect width="213.044" height="208.687" rx="10" transform="matrix(0.995755 -0.0920535 0.0958682 0.995393 249.218 39.2495)" fill="#F5FAFF"/>
<path d="M457.433 229.715C455.059 216.513 444.595 187.615 417.525 184.347L385.984 181.306L354.047 184.278L323.648 193.029C297.681 201.202 292.92 231.513 293.109 244.917L457.431 229.717L457.433 229.715Z" fill="#F2A21D"/>
<path d="M366.143 117.62C366.143 117.62 366.142 117.612 366.139 117.6L366.124 117.574C366.132 117.593 366.137 117.605 366.145 117.62L366.143 117.62Z" fill="#CF8548"/>
<path d="M350.614 159.402L353.131 185.413C353.65 190.779 360.885 194.494 371.791 193.482C382.697 192.47 389.091 187.487 388.572 182.124L386.055 156.112L350.614 159.402Z" fill="#F6A55C"/>
<path d="M388.389 176.593L386.499 157.059L351.635 162.659L379.602 183.47C386.502 186.5 388.624 179.03 388.389 176.593Z" fill="#D18343"/>
<path d="M376.57 111.617L353.635 113.746C349.57 114.123 346.587 117.656 346.973 121.637L350.061 153.563C350.446 157.543 354.053 160.464 358.118 160.087L381.053 157.958C385.117 157.581 388.1 154.048 387.715 150.067L384.627 118.141C384.242 114.161 380.635 111.24 376.57 111.617Z" fill="#F6A55C"/>
<path d="M385.17 138.319C385.089 140.68 386.979 142.662 389.392 142.74C391.805 142.819 393.827 140.968 393.907 138.607L394.224 129.337C394.306 126.973 392.414 124.994 390.001 124.913C387.59 124.835 385.567 126.686 385.487 129.049L385.17 138.321L385.17 138.319Z" fill="#F6A55C"/>
<path d="M367.432 126.613C367.432 126.613 367.431 126.605 367.43 126.595L367.413 126.57C367.421 126.587 367.426 126.599 367.432 126.613Z" fill="#CF8548"/>
<path d="M350.176 141.559C350.708 143.863 349.231 146.157 346.876 146.678C344.521 147.199 342.181 145.753 341.649 143.448L339.56 134.401C339.028 132.095 340.505 129.803 342.86 129.28C345.213 128.759 347.555 130.205 348.087 132.512L350.174 141.561L350.176 141.559Z" fill="#F6A55C"/>
<path d="M388.019 127.935L383.97 128.36L384.955 138.352C385.074 139.557 384.497 141.134 383.779 142.132C383.059 143.134 381.752 144.029 380.687 144.13L368.112 145.353L356.063 146.416C354.995 146.511 353.542 145.872 352.641 145.022C351.744 144.172 350.873 142.731 350.76 141.526L349.812 131.531L345.222 131.907L346.98 150.812C347.615 156.668 354.551 169.972 356.408 170.629C357.96 172.094 360.434 173.031 362.272 172.876L378.521 171.352C380.356 171.166 382.607 169.799 383.85 168.074C385.775 166.152 390.898 150.468 389.915 146.823L388.019 127.935Z" fill="#B86C26"/>
<path d="M367.023 126.652C367.023 126.652 367.022 126.644 367.019 126.634L367.004 126.609C367.012 126.626 367.017 126.638 367.025 126.652L367.023 126.652Z" fill="#CF8548"/>
<path d="M386.228 107.146C382.171 106.433 377.568 103.449 372.913 99.8307C364.018 92.2122 350.196 94.5333 347.834 108.996C337.038 109.452 339.044 118.202 341.473 130.16L344.564 129.995L345.769 138.548L350.429 138.115C349.977 128.806 348.92 123.256 350.616 120.052C358.499 108.701 368.519 119.905 381.036 119.934C382.955 122.987 384.147 127.828 384.671 134.87L388.632 134.584L387.975 125.523L391.317 125.303C394.744 110.214 391.616 107.828 386.23 107.146L386.228 107.146Z" fill="#4C3B34"/>
<path d="M376.526 152.018C376.673 153.543 375.53 154.897 373.973 155.041L363.298 156.029C361.741 156.173 360.359 155.052 360.212 153.527C360.064 152.002 361.208 150.648 362.765 150.504L373.44 149.517C374.997 149.373 376.379 150.493 376.526 152.018Z" fill="#F6A55C"/>
<path d="M-25.2331 81.6362L112.095 51.4514C117.489 50.2658 122.861 53.6689 124.093 59.0525L154.817 193.259C156.05 198.643 152.676 203.968 147.282 205.154L9.9539 235.338C4.55982 236.524 -0.812059 233.121 -2.04452 227.737L-32.7684 93.5308C-34.0009 88.1472 -30.6272 82.8218 -25.2331 81.6362Z" fill="#F5FAFF"/>
<path d="M29.3578 188.268C29.459 188.223 59.3013 171.559 59.3013 171.559L77.6479 167.542C77.6479 167.542 108.825 170.848 108.936 170.847C126.505 173.486 132.651 192.653 143.774 206.032L13.0741 234.646C17.3438 217.897 14.6013 197.986 29.3597 188.268L29.3578 188.268Z" fill="#9F73C2"/>
<path d="M53.1077 148.988L59.8622 177.16C80.9578 219.89 87.5436 194.762 80.6018 174.253L74.6526 157.431L53.1095 148.989L53.1077 148.988Z" fill="#D08B6F"/>
<path d="M33.4303 140.76C35.8631 141.912 36.982 143.641 37.5938 145.499C38.42 148.008 41.5959 150.175 44.1877 149.797C46.3095 149.488 47.9637 150.132 49.2189 151.514C50.2855 152.687 52.6298 153.046 53.9758 152.189C56.1913 150.778 57.8866 150.749 59.131 151.891C61.8917 154.426 66.5227 149.845 70.0409 147.842C75.8967 144.509 82.7645 139.669 80.5971 133.844C79.8603 131.866 80.3092 129.847 81.6306 128.517C82.9483 127.191 82.574 124.492 81.4931 122.952C80.3968 121.39 79.5241 119.759 80.2385 117.816C80.9814 115.8 79.2901 112.963 77.2415 111.96C75.7393 111.225 74.3611 110.36 74.1755 108.261C73.9881 106.147 71.2768 104.061 69.1936 104.354C67.115 104.647 65.3201 103.491 63.634 101.814C62.0432 100.232 58.9261 99.4035 56.9851 100.547C55.2668 101.559 53.1086 101.397 50.7947 100.874C49.2397 100.521 47.1845 100.885 46.1394 102.108C44.6334 103.868 42.7577 104.717 40.6306 104.877C38.8142 105.015 36.8258 106.525 36.514 108.216C36.1371 110.261 34.9582 111.821 32.862 112.785C30.9373 113.67 29.6112 116.44 30.2218 118.412C30.8579 120.47 30.5423 122.362 29.0588 124.01C27.6376 125.588 28.0036 128.601 29.2628 130.337C30.3951 131.899 31.2769 133.53 30.6388 135.458C30.0239 137.317 31.5565 139.872 33.43 140.759L33.4303 140.76Z" fill="#50598E"/>
<path d="M14.29 118.793C15.9107 119.666 16.6133 120.885 16.964 122.177C17.4373 123.922 19.5292 125.512 21.3133 125.344C22.775 125.207 23.8818 125.705 24.6898 126.693C25.3767 127.532 26.9651 127.86 27.9161 127.321C29.4826 126.435 30.6416 126.474 31.4514 127.299C33.2457 129.127 36.5774 126.158 39.0559 124.913C43.1792 122.84 48.0503 119.771 46.7794 115.715C46.3473 114.337 46.7274 112.973 47.6797 112.11C48.6281 111.249 48.4706 109.392 47.7882 108.301C47.0962 107.195 46.5578 106.05 47.1172 104.748C47.6982 103.395 46.646 101.399 45.2815 100.64C44.282 100.086 43.3712 99.4455 43.3204 98.0048C43.2701 96.5537 41.4916 95.0324 40.0564 95.1607C38.6242 95.2885 37.4409 94.4349 36.348 93.2315C35.3181 92.0939 33.2179 91.4194 31.8496 92.133C30.6388 92.7653 29.1695 92.5783 27.6072 92.1403C26.557 91.8458 25.1388 92.0221 24.3808 92.821C23.2878 93.9714 21.975 94.4858 20.5144 94.5224C19.2688 94.552 17.8538 95.5161 17.5802 96.6605C17.2484 98.0445 16.3854 99.0697 14.9173 99.6547C13.569 100.192 12.5623 102.04 12.9081 103.409C13.2688 104.836 12.9831 106.119 11.9091 107.195C10.8801 108.223 11.0205 110.296 11.8186 111.525C12.5363 112.632 13.0795 113.779 12.5726 115.074C12.0852 116.322 13.0399 118.122 14.2874 118.795L14.29 118.793Z" fill="#50598E"/>
<path d="M75.7704 123.118C76.648 126.792 77.8231 129.731 80.7801 134.586C83.1556 140.196 82.1939 147.216 78.8101 154.171C75.8545 159.373 66.0714 159.074 61.9352 157.128C51.8463 152.634 50.3918 147.72 50.1047 137.055C44.7018 124.851 49.2613 120.162 55.6138 119.627C60.9886 119.144 64.0189 118.185 66.1164 117.026C68.9916 115.438 73.2171 114.907 75.7704 123.118Z" fill="#D08B6F"/>
<path d="M42.6571 135.817C41.1558 138.088 42.5835 141.611 45.8467 143.685C49.1098 145.758 51.3172 144.708 52.8185 142.437C54.3198 140.166 54.5463 137.532 51.2831 135.458C48.02 133.385 44.1584 133.546 42.6571 135.817Z" fill="#D08B6F"/>
<path d="M74.6243 157.44C68.4292 159.506 62.1753 157.732 59.233 155.219C65.7905 163.387 74.2513 163.059 76.3753 162.372L74.6247 157.441L74.6243 157.44Z" fill="#AE7159"/>
<path d="M48.849 143.01C48.1317 143.166 47.4204 142.723 47.2602 142.02C47.1001 141.317 47.5518 140.62 48.2691 140.463C48.9864 140.307 49.6977 140.75 49.8579 141.453C50.018 142.156 49.5663 142.853 48.849 143.01Z" fill="#FFCA6E"/>
</svg>
