<svg width="344" height="480" viewBox="0 0 344 480" fill="none" xmlns="http://www.w3.org/2000/svg">
<path d="M49.998 195C46.143 196.599 44.1414 193.554 41.998 193.5C32.8254 193.27 34.1478 188.687 32.102 189.694C28.3785 193 39.3785 197.5 32.1028 198.001C30.4097 198.049 21.6037 197.501 19.4676 197.501C17.9676 197.501 17.4676 196.999 17.4676 199.001C17.4676 200.499 15.491 199.001 15.4754 201.499C16.4988 202.999 12.9988 205.499 21.9988 208.499C23.6026 209.034 25.8641 209.87 26.9988 210.999C28.1336 212.128 38.4446 213.581 43.4988 210.999C48.5531 208.417 46.8048 210.234 51.7158 208.269C56.6502 206.355 62.7849 205.049 62.7849 205.049L57.5025 192.5L49.998 195Z" fill="#F0BB8F"/>
<path d="M46.1179 192.605L88.99 176.556C95.9353 166.983 105.378 125.241 114.266 118.922C117.072 116.957 119.738 132.225 124.31 131.159C127.323 142.384 137.095 134.738 132.97 145.521L129.177 155.527C122.803 162.3 111.826 193.96 102.807 197.03C95.0345 199.645 54.3132 211.298 54.3132 211.298C43.9709 205.246 46.1498 192.658 46.1498 192.658L46.1179 192.605Z" fill="#31CE5D"/>
<path d="M102.764 196.982C94.9922 199.597 54.2709 211.251 54.2709 211.251C51.2385 209.444 49.2832 207.138 48.0419 204.696C56.208 202.135 97.0168 189.417 99.0881 187.312C101.394 184.994 121.45 142.487 121.45 142.487L118.379 175.499C113.474 183.061 111.837 193.88 102.818 196.951L102.764 196.982Z" fill="#1FB549"/>
<path d="M187.887 284.999L183.184 161.48L196.54 189.219L205.887 277.999L187.887 284.999Z" fill="#1FB549"/>
<path d="M118.721 279.498C115.835 305.891 124.812 321.945 123.953 326.037C123.095 330.129 121.509 357.616 126.322 383.206C128.848 396.625 145.638 435.226 145.668 439.75C145.707 445.795 143.391 455.538 143.905 455.685C144.416 455.833 160.037 456.796 160.037 456.796C160.037 456.796 159.804 450.43 159.555 447.094C159.306 443.759 157.796 398.057 156.171 386.024C154.546 373.994 153.285 353.999 153.285 353.999C153.285 353.999 160.746 374.766 165.72 396.752C170.693 418.739 170.857 448.122 170.857 448.122C166.014 451.961 187.295 448.139 187.295 445.04C187.593 445.311 188.163 432.68 187.574 427.753C186.987 422.851 191.051 399.696 188.322 377.232C185.737 355.966 184.131 336.534 184.131 331.292C184.131 326.05 192.848 289.612 191.328 273.159C191.22 272.006 119.209 275.062 118.725 279.498H118.721Z" fill="#F0BB8F"/>
<path d="M121.269 209.223C121.269 209.223 111.12 250.786 113.139 296.155C113.139 296.155 133.527 297.996 155.351 297.996C182.519 297.996 195.011 296.599 195.011 296.599C195.011 296.599 201.196 215.194 191.022 205.511C180.849 195.827 121.267 209.226 121.267 209.226L121.269 209.223Z" fill="#3994E9"/>
<path d="M172.867 212.101C172.867 212.101 173.147 223.78 173.868 268.381C173.868 268.381 177.073 297.996 184.867 297.996C194.569 297.996 199.201 297.996 199.201 297.996C199.201 297.996 201.409 217.971 197.776 208.451C194.143 198.931 172.866 212.103 172.866 212.103L172.867 212.101Z" fill="#2D7EC9"/>
<path d="M160.08 31.0051C167.347 31.1099 178.142 36.0209 183.275 48.4082C188.835 61.8144 188.835 108.513 188.835 108.513L181.071 109.123L181.031 106.335L179.839 109.221L155.199 111.154L130.856 109.601L130.47 106.331L129.929 109.542L122.882 109.093C122.882 109.093 109.735 30.2712 160.08 31.0051Z" fill="#C0560D"/>
<g opacity="0.11">
<path d="M133.888 83.5C133.436 95.4974 134.655 109.55 134.655 109.55C134.655 109.55 148.3 110.575 159.334 110.824L175.404 109.563C177.586 106.529 176.446 76.6406 176.446 76.6406C176.446 76.6406 134.072 78.5562 133.885 83.5H133.888Z" fill="black"/>
</g>
<path d="M145.146 89.6508C145.146 89.6508 145.844 105.478 145.146 106.713C144.448 107.952 115.505 116.078 114.886 117.5C114.267 118.919 128.018 200.475 128.018 200.475H182.743C182.743 200.475 199.213 117.213 198.217 116.437C197.221 115.661 168.079 107.182 167.083 105.789C166.087 104.397 166.487 88.668 166.487 88.668L145.149 89.6508H145.146Z" fill="#F0BB8F"/>
<path d="M136.506 62.5014C136.506 62.5014 135.123 72.2076 136.607 82.0555C138.133 92.1899 148.623 98.8074 155.441 98.8074C160.758 98.8074 171.602 93.2264 173.644 83.5113C175.806 73.2204 174.655 61.521 174.655 60.5938C174.655 58.7955 171.168 43.3281 157.27 43.3281C143.372 43.3281 137.684 58.5149 136.512 62.5014H136.506Z" fill="#F0BB8F"/>
<path d="M133.597 84.7212C133.597 84.7212 130.298 42.1044 152.619 39.6374C174.939 37.1705 175.146 49.0893 175.657 55.0224C175.709 55.6253 175.712 67.4228 179.048 69.3394C179.048 69.3394 188.503 32.135 157.389 33.4192C126.275 34.7035 127.559 69.5131 127.461 70.0209C127.362 70.5287 133.597 84.7212 133.597 84.7212Z" fill="#C0560D"/>
<path d="M178.786 72.9636C179.536 69.755 178.199 66.6994 175.801 66.1385C173.402 65.5777 170.849 67.724 170.099 70.9326C169.349 74.1411 170.685 77.1968 173.084 77.7577C175.483 78.3185 178.035 76.1721 178.786 72.9636Z" fill="#F0BB8F"/>
<path d="M145.388 97.0017C147.652 98.5468 152.156 101.061 155.826 100.837C156.062 100.837 156.652 100.868 156.888 100.854C160.156 100.664 163.751 100.638 166.381 100C166.349 98.4492 166.372 95.9261 166.381 94.5C164.318 95.6284 160.067 98.0159 156.326 98.2313C152.768 98.4383 147.566 96.5535 145.382 95.5017C145.401 96.0772 145.368 96.3808 145.388 97.0017Z" fill="#DF9557"/>
<path d="M140.003 118.524C140.003 118.524 146.522 122.521 155.955 122.521C167.906 122.521 172.873 117.285 172.873 117.285C172.873 117.285 181.342 215.643 178.691 216.495C167.854 219.977 135.727 219.204 130.564 216.315C129.05 215.469 140.003 118.524 140.003 118.524Z" fill="#E1EDF7"/>
<path d="M113.172 117.777C119.197 111.96 143.915 107 143.915 107C143.915 107 146.089 286.209 143.915 289.465C141.761 292.693 108.447 280.378 106.178 277.798C103.91 275.223 115.376 223.362 115.376 223.362C115.376 223.362 120.635 184.252 117.527 170.576C115.408 161.262 104.112 126.526 113.172 117.772V117.777Z" fill="#31CE5D"/>
<path d="M132.456 467.305C132.456 467.305 130.644 476.288 148.542 475.413C166.44 474.538 165.402 469.277 163.927 466.869C162.453 464.458 162.918 463.036 164.048 460.077C165.179 457.119 161.693 450.403 160.864 447.955C160.428 446.678 159.976 446.432 159.776 446.35C159.658 446.301 159.901 447.29 159.901 447.29C158.993 448.253 157.182 450.108 157.182 450.108C157.182 450.108 161.477 443.205 151.674 442.766C141.872 442.327 143.484 448.136 143.484 448.136L143.385 447.261C143.385 447.261 141.387 452.627 138.314 456.791C135.241 460.955 132.45 463.367 132.459 467.308L132.456 467.305Z" fill="#31CE5D"/>
<path d="M141.829 461.546C141.829 461.546 141.567 451.357 144.142 450.371C146.717 449.384 155.913 450.043 156.441 451.439C156.972 452.834 154.347 461.136 154.347 461.136L141.829 461.546Z" fill="#E1EDF7"/>
<path d="M198.924 466.523C198.924 466.523 200.736 475.507 182.838 474.632C164.94 473.757 165.978 468.496 167.453 466.088C168.927 463.676 168.462 462.254 167.331 459.296C166.201 456.338 169.687 449.621 170.516 447.174C170.952 445.896 171.404 445.651 171.604 445.569C171.722 445.52 171.479 446.509 171.479 446.509C172.387 447.472 174.198 449.327 174.198 449.327C174.198 449.327 169.903 442.424 179.706 441.985C189.508 441.546 187.896 447.354 187.896 447.354L187.994 446.48C187.994 446.48 189.993 451.846 193.066 456.01C196.139 460.174 198.93 462.585 198.92 466.527L198.924 466.523Z" fill="#31CE5D"/>
<path d="M189.551 460.777C189.551 460.777 189.813 450.588 187.238 449.602C184.663 448.616 175.466 449.274 174.939 450.67C174.408 452.066 177.033 460.367 177.033 460.367L189.551 460.777Z" fill="#E1EDF7"/>
<path d="M167.264 105.969C167.264 105.969 167.834 288.058 168.889 289.5C170.855 292.18 204.688 279.027 205.389 277.5C206.09 275.973 196.383 186.894 196.383 186.894C196.383 186.894 201.206 189.748 206.628 187.562C208.685 186.733 212.132 179.146 212.063 175.742C211.725 159.364 206.356 120.545 203.722 118.192C199.852 114.742 167.264 105.969 167.264 105.969Z" fill="#31CE5D"/>
<path d="M186.753 154.027C186.642 154.174 184.411 156.89 184.162 157.902C183.913 158.915 183.185 179.712 185.98 183.604C188.774 187.496 203.55 192.145 205.345 190.818C207.141 189.491 212.111 179.027 212.065 176.672C212.019 174.316 199.858 149.365 199.556 149.063C199.255 148.762 186.756 154.027 186.756 154.027H186.753Z" fill="#31CE5D"/>
<path d="M190.803 143L175.29 142.52C174.397 142.511 173.675 141.58 173.935 140.753L180.84 118.952C181.672 116.317 183.467 114.971 186.311 115L197.487 115.107C199.078 115.107 200.298 116.32 199.747 117.855L192.093 142.084C191.919 142.632 191.393 143.006 190.803 143Z" fill="#F9C069"/>
<path d="M198.375 116.114L186.932 116C184.329 115.973 183.019 117.083 182.256 119.504L174.881 142.841L190.762 143C191.361 143.006 191.892 142.628 192.065 142.073L199.851 117.374C200.067 116.651 199.091 116.12 198.371 116.114H198.375Z" fill="#F59300"/>
<path d="M194.754 123L191.491 122.992C191.081 122.992 190.789 122.659 190.908 122.333L192.076 119.184C192.337 118.478 193.121 117.997 194.008 118L197.272 118.008C197.681 118.008 197.974 118.341 197.854 118.667L196.687 121.816C196.426 122.522 195.642 123.003 194.754 123Z" fill="#AB4D0C"/>
<path d="M198.782 126.329C199.179 125.034 198.58 123.958 197.585 124.03L195.137 132.072C195.137 132.072 184.748 122.318 183.232 124.254C181.716 126.194 190.722 135.277 190.722 135.277L189.655 136.242C189.655 136.242 179.657 131.134 177.598 130.136C175.54 129.138 174.256 129.117 173.942 130.001C173.538 131.137 174.632 132.456 174.632 132.456C174.632 132.456 173.312 131.815 172.462 132.789C171.7 133.667 172.508 135.571 172.508 135.571C172.508 135.571 171.046 135.01 170.889 136.656C170.554 140.13 181.384 148.371 181.384 148.503C181.384 148.635 182.806 150.544 183.381 151.5C183.855 152.285 184.82 153.617 184.82 153.617C184.82 153.617 185.646 154.972 186.08 156C187.675 155.928 189.272 155.691 190.779 155.236C192.434 154.735 193.98 153.965 195.418 153.02C195.056 151.441 194.022 146.773 194.279 145.928C194.586 144.906 199.583 138.487 199.824 136.554C200.258 133.062 198.043 128.706 198.776 126.326L198.782 126.329Z" fill="#F0BB8F"/>
<path d="M329.164 446.831C328.265 451.465 331.516 454.37 331.516 454.37C331.516 454.37 321.624 465.16 310.004 465.99C298.384 466.89 291.397 461.079 291.397 461.079C291.397 461.079 305.37 454.093 307.376 448.283C309.381 442.473 329.233 446.831 329.233 446.831H329.164Z" fill="#F0BB8F"/>
<path d="M331.515 454.367C334.351 456.166 332.967 468.547 332.967 468.547C332.967 468.547 304.124 481.966 289.183 479.752C274.243 477.539 273.274 470.138 277.839 467.164C282.405 464.189 294.44 459.347 294.44 459.347L299.074 453.537C299.074 453.537 301.703 453.191 304.4 455.612C307.098 457.964 303.778 461.837 303.778 461.837C303.778 461.837 310.072 462.183 316.851 460.592C323.629 459.002 331.515 454.298 331.515 454.298V454.367Z" fill="#2D7EC9"/>
<path d="M274.592 436.239C273.762 440.666 276.805 443.433 276.805 443.433C276.805 443.433 267.467 453.601 256.469 454.431C245.471 455.261 238.831 449.727 238.831 449.727C238.831 449.727 252.042 443.156 253.979 437.623C255.916 432.089 274.592 436.239 274.592 436.239Z" fill="#F0BB8F"/>
<path d="M276.811 443.44C279.509 445.1 278.194 456.858 278.194 456.858C278.194 456.858 250.872 469.585 236.762 467.51C222.651 465.435 221.683 458.449 226.041 455.613C230.329 452.777 241.742 448.212 241.742 448.212L246.1 442.748C246.1 442.748 248.59 442.471 251.149 444.685C253.708 446.967 250.596 450.564 250.596 450.564C250.596 450.564 256.544 450.91 262.977 449.388C269.41 447.866 276.88 443.44 276.88 443.44H276.811Z" fill="#2D7EC9"/>
<path d="M326.96 334.152C321.841 316.86 320.942 261.456 320.458 242.296C319.974 223.205 319.42 216.426 317.622 206.743L271.763 188.275L236.902 213.66C236.902 213.66 235.864 258.62 236.21 269.756C236.487 280.892 236.625 333.046 240.014 342.66C243.334 352.275 243.334 357.462 242.989 368.944C242.643 379.32 244.441 426.286 244.787 434.932C244.787 435.831 245.34 436.592 246.101 436.938C257.652 442.54 272.178 439.981 276.881 438.874C277.85 438.667 278.541 437.906 278.611 436.938C279.994 425.871 282.207 386.375 282.553 374.132C282.899 361.197 278.818 355.249 276.259 346.395C274.53 340.378 276.951 291.821 277.089 267.888C281.931 294.518 291.891 349.231 293.275 353.381C295.142 358.915 298.116 366.316 299.569 388.173C300.883 407.541 301.921 440.258 302.128 447.451C302.128 448.351 302.682 449.181 303.442 449.526C311.881 453.192 326.199 450.426 331.11 449.319C332.148 449.111 332.839 448.212 332.908 447.175C333.254 440.396 334.638 414.527 335.675 390.179C336.92 361.82 332.009 351.375 326.891 334.083L326.96 334.152Z" fill="#63CDF6"/>
<g opacity="0.5">
<path d="M262.143 334.145C265.809 345.213 265.947 440.389 265.947 440.389C270.72 440.182 274.731 439.421 276.807 438.937C277.775 438.729 278.467 437.968 278.536 437C279.919 425.933 282.133 386.437 282.478 374.194C282.824 361.26 278.743 355.311 276.184 346.458C274.455 340.44 276.876 291.883 277.014 267.951L276.046 211.924L263.803 216.558C263.803 216.558 258.338 323.148 262.004 334.215L262.143 334.145Z" fill="#12AAE1"/>
</g>
<g opacity="0.5">
<path d="M313.96 334.15C321.016 353.586 321.569 434.86 319.701 451.184C324.543 450.769 328.901 449.939 331.184 449.386C332.221 449.178 332.913 448.279 332.982 447.241C333.328 440.463 334.711 414.594 335.749 390.246C336.994 361.887 332.083 351.442 326.964 334.15C321.846 316.858 320.946 261.453 320.462 242.293C319.978 223.203 319.01 222.234 318.941 211.721L279.86 190.347C273.289 191.592 267.686 192.492 263.882 192.63L259.248 193.114L247.212 209.784C267.825 220.782 300.057 215.041 300.057 215.041C300.057 215.041 306.421 313.33 313.96 334.15Z" fill="#12AAE1"/>
</g>
<path d="M249.556 30.4291C244.921 62.6619 247.896 89.7762 247.896 89.7762L291.265 85.6952L277.293 30.4291H249.487H249.556Z" fill="#343754"/>
<path d="M267.948 77.1232C264.49 77.6074 255.291 78.8525 249.688 81.0659C244.016 83.2793 239.105 88.9512 234.194 104.722C231.289 113.921 229.075 122.913 227.761 128.793C226.793 132.943 222.089 158.466 222.089 158.466L277.148 160.265V86.9453L268.018 77.0541L267.948 77.1232Z" fill="#CE4F37"/>
<path d="M267.96 77.1207C264.501 77.6049 255.302 78.85 249.699 81.0634C244.511 83.1384 239.946 88.1878 235.381 101.192L235.934 102.022C240.845 93.7905 247.762 88.257 251.497 86.7352C255.163 85.2135 266.853 82.7926 266.853 82.7926L269.896 79.1266L268.029 77.1207H267.96Z" fill="#B8402D"/>
<path d="M268.227 68.7448C269.68 72.2032 267.951 78.3593 266.498 80.5727C265.046 82.7861 266.014 90.948 275.628 92.6773C285.243 94.4065 291.676 90.9481 294.858 87.0054C298.039 83.0628 294.858 56.6402 294.858 56.6402L286.211 51.3833L268.227 68.7448Z" fill="#F0BB8F"/>
<path d="M241.114 133.212C239.938 123.045 247.477 104.991 247.477 104.991C247.477 104.991 244.088 126.157 247.477 134.181L241.114 133.212Z" fill="#B8402D"/>
<g opacity="0.5">
<path d="M296.189 73.1123C296.051 68.9621 295.705 64.7428 295.359 61.6302C291.901 59.6935 288.304 58.3793 288.304 58.3793C288.304 58.3793 283.531 58.4484 278.551 58.7251L268.176 68.6855C268.936 70.4147 268.867 72.7665 268.452 74.9799C268.591 74.9799 284.707 78.2308 296.189 73.0431V73.1123Z" fill="#E8AB79"/>
</g>
<path d="M291.753 45.7201C294.727 53.1903 290.785 61.1448 283.799 66.125C276.812 71.1051 268.858 74.5636 264.362 70.1368C259.866 65.6408 254.263 58.0322 254.263 53.052C254.263 48.0718 248.453 47.726 249.906 37.2123C251.427 26.7677 258.344 19.7816 262.356 18.7441C266.368 17.7757 290.231 28.7045 290.231 28.7045L291.753 45.6509V45.7201Z" fill="#F0BB8F"/>
<path d="M260.067 19.9191C260.482 22.2017 257.646 30.2253 252.943 35.8971C248.239 41.569 253.15 47.7251 249.692 53.3969C246.234 59.0688 255.848 76.5686 249.692 83.278C243.536 89.9182 237.657 90.1949 235.927 102.023C235.927 102.023 230.74 90.8866 234.475 82.5172C238.21 74.1477 242.36 69.6517 238.694 62.0431C234.959 54.3653 233.991 42.0532 238.21 37.6264C242.429 33.1995 246.994 22.8242 246.649 16.6681C246.303 10.5121 259.168 -3.32176 266.569 1.86593L260.137 19.9882L260.067 19.9191Z" fill="#444869"/>
<path d="M316.37 139.583C311.805 156.115 312.15 165.107 315.401 175.62C318.168 184.681 319.759 206.47 320.52 212.557C320.727 214.355 319.897 216.015 318.307 216.845C313.396 219.612 300.599 224.8 275.007 224.8C247.892 224.8 239.385 217.053 236.964 213.663C236.341 212.833 236.134 211.727 236.272 210.689C236.964 205.847 239.177 177.834 239.73 171.608C240.353 164.207 251.212 114.336 251.212 114.336L267.606 87.9138L303.85 72.2124L318.652 80.0977L316.439 139.583H316.37Z" fill="#CE4F37"/>
<path d="M264.258 150.468C266.75 134.627 258.355 129.378 254.967 128.681C251.563 128.053 247.475 130.008 245.444 131.734C245.621 145.446 256.003 145.865 256.003 145.865L264.258 150.468Z" fill="#F0BB8F"/>
<path d="M236.76 163.337C234.207 164.812 228.047 167.04 224.75 164.894C221.454 162.747 222.15 154.218 223.154 152.547C224.088 150.853 245.44 131.73 245.44 131.73L257.754 136.992L236.76 163.337Z" fill="#F0BB8F"/>
<path d="M320.45 212.55C319.689 206.463 318.167 184.675 315.331 175.614C312.08 165.1 311.804 156.108 316.3 139.577C313.187 129.755 310.628 109.004 310.628 109.004C310.628 109.004 301.705 146.909 302.95 158.529C304.126 170.15 305.44 221.335 305.44 221.542C311.734 219.951 315.885 218.153 318.236 216.839C319.827 216.009 320.657 214.279 320.45 212.55Z" fill="#B8402D"/>
<path d="M262.561 170.233L279.101 170.948C280.052 171.009 280.893 170.076 280.682 169.175L275.06 145.44C274.383 142.571 272.58 140.997 269.553 140.804L257.655 140.034C255.963 139.908 254.57 141.102 255.034 142.779L261.261 169.156C261.403 169.754 261.933 170.192 262.561 170.233Z" fill="#63CDF6"/>
<path d="M256.633 141.034L268.813 141.817C271.585 141.994 272.89 143.278 273.51 145.914L279.511 171.32L262.606 170.235C261.968 170.194 261.433 169.75 261.293 169.146L254.963 142.258C254.79 141.471 255.87 140.984 256.636 141.034L256.633 141.034Z" fill="#00ABE1"/>
<path d="M259.942 148.644L263.415 148.893C263.85 148.926 264.188 148.594 264.086 148.238L263.093 144.797C262.871 144.025 262.075 143.452 261.131 143.384L257.659 143.135C257.223 143.102 256.886 143.434 256.987 143.79L257.98 147.231C258.202 148.003 258.998 148.577 259.942 148.644Z" fill="#2D7EC9"/>
<path d="M311.039 160C306.189 160.151 295.636 163.989 292.152 164.292C288.668 164.519 284.024 161.488 281.701 158.456C278.969 154.894 275.895 154.666 275.895 154.666L277.876 161.26C277.876 161.26 276.442 161.26 270.909 161.26C265.376 161.26 261.414 156.258 260.595 157.395C259.775 158.532 261.414 166.187 262.439 167.93C263.463 169.597 269.201 171.341 271.592 172.098C273.914 172.856 282.316 171.871 285.39 172.098C288.463 172.326 306.428 177.176 315.035 178.086C323.641 178.995 322.138 166.414 322.138 166.414L314.239 160.533L311.039 160Z" fill="#F0BB8F"/>
<path d="M318.591 80.0916C329.451 84.5184 332.909 89.2219 336.368 99.8739C339.826 110.457 342.316 147.255 343.008 157.353C343.769 167.452 343.008 172.156 340.794 173.124C338.581 174.092 327.649 179.358 312.639 178.666C312.639 178.666 318.668 162.974 310.506 160C310.506 160 319.314 158.498 322.773 159.466C322.773 159.466 317.484 145.318 315.064 134.943L318.66 80.0916H318.591Z" fill="#CE4F37"/>
<path d="M260.067 19.9164C259.098 27.2484 278.051 33.7503 285.452 38.5229C291.677 42.5348 283.999 62.0405 292.784 67.7123C301.568 73.3842 286.974 81.062 292.784 90.6765C298.594 100.291 290.916 108.937 290.916 108.937C290.916 108.937 304.266 104.51 304.473 96.3483C304.75 88.1864 307.655 75.5976 318.515 80.0244C318.515 80.0244 321.212 66.1906 315.817 61.0029C310.353 55.8152 307.171 42.7423 310.145 38.7996C313.12 34.857 307.171 16.1121 300.047 16.5963C292.922 17.0805 288.703 -6.57534 266.5 1.79413L260.067 19.9164Z" fill="#444869"/>
<path d="M337.601 104.991C337.601 104.991 340.229 163.578 339.053 166.414C337.877 169.319 321.502 176.166 314.239 173.123C314.101 175.751 312.639 178.666 312.639 178.666C327.718 179.427 338.569 174.161 340.783 173.123C342.996 172.155 343.757 167.451 342.996 157.352C342.373 148.499 340.368 119.309 337.601 104.991Z" fill="#B8402D"/>
<g opacity="0.5">
<path d="M252.89 35.8903C252.89 35.8903 253.444 35.1986 253.651 34.8528C253.375 35.1295 253.167 35.4061 252.89 35.8903Z" fill="#8A3F24"/>
</g>
<g opacity="0.5">
<path d="M310.145 38.8682C303.021 42.8109 312.22 63.7 300.6 62.1091C285.659 60.034 291.469 48.2752 287.319 41.22C289.74 47.9294 285.244 62.8699 292.784 67.7118C301.568 73.3836 286.973 81.0614 292.784 90.6759C298.594 100.29 290.916 108.937 290.916 108.937C290.916 108.937 304.266 104.51 304.473 96.3478C304.75 88.1858 307.655 75.5971 318.515 80.0239C318.515 80.0239 321.212 66.1901 315.817 61.0024C310.353 55.8147 307.171 42.7417 310.145 38.7991V38.8682Z" fill="#2F324F"/>
</g>
<g opacity="0.5">
<path d="M248.927 56.5096C245.123 69.2367 235.854 58.5846 235.37 47.5176C235.37 52.4286 236.546 57.9621 238.551 62.1123C242.287 69.79 238.067 74.2169 234.332 82.5863C230.597 90.9558 235.785 102.092 235.785 102.092C237.514 90.2641 243.462 89.9874 249.549 83.3472C254.806 77.6061 248.512 63.9107 248.789 56.5787L248.927 56.5096Z" fill="#393D5D"/>
</g>
</svg>
