<svg width="259" height="52" viewBox="0 0 259 52" fill="none" xmlns="http://www.w3.org/2000/svg">
<g clip-path="url(#clip0_0_2854)">
<path d="M4.31836 39.0237C4.42785 39.1403 4.54757 39.2478 4.67138 39.3521C4.54655 39.2488 4.42887 39.1403 4.31836 39.0237Z" fill="#00AAE1"/>
<path d="M4.74805 39.4194C4.89744 39.5371 5.05502 39.6466 5.22284 39.7438C5.05502 39.6466 4.89744 39.5371 4.74805 39.4194Z" fill="#00AAE1"/>
<path d="M44.7842 39.7438C44.952 39.6466 45.1096 39.5381 45.259 39.4194C45.1096 39.5371 44.952 39.6466 44.7842 39.7438Z" fill="#00AAE1"/>
<path d="M38.5586 20.4974C38.5586 20.3316 38.5463 20.1668 38.5259 20.0042C38.5463 20.1668 38.5586 20.3306 38.5586 20.4974Z" fill="#00AAE1"/>
<path d="M37.8339 18.2064C37.8339 18.2064 37.8277 18.1982 37.8257 18.1931C37.8288 18.1972 37.8318 18.2013 37.8339 18.2064Z" fill="#00AAE1"/>
<path d="M12.9849 17.3367C12.9583 17.3582 12.9348 17.3827 12.9082 17.4042C12.9348 17.3827 12.9583 17.3582 12.9849 17.3367Z" fill="#00AAE1"/>
<path d="M37.0982 17.4042C37.0716 17.3827 37.0481 17.3582 37.0215 17.3367C37.0481 17.3582 37.0716 17.3817 37.0982 17.4042Z" fill="#00AAE1"/>
<path d="M37.4931 17.7805C37.4788 17.7651 37.4665 17.7487 37.4512 17.7334C37.4655 17.7487 37.4788 17.7651 37.4931 17.7805Z" fill="#00AAE1"/>
<path d="M38.3159 19.1425C38.3128 19.1322 38.3098 19.123 38.3057 19.1128C38.3098 19.122 38.3118 19.1322 38.3159 19.1425Z" fill="#00AAE1"/>
<path d="M38.3057 32.8861C38.3087 32.8779 38.3108 32.8698 38.3138 32.8616C38.3108 32.8698 38.3087 32.8779 38.3057 32.8861Z" fill="#00AAE1"/>
<path d="M38.4686 19.689C38.4584 19.6409 38.4512 19.5917 38.4399 19.5447C38.4522 19.5917 38.4584 19.6409 38.4686 19.689Z" fill="#00AAE1"/>
<path d="M38.4399 32.4541C38.4512 32.409 38.4584 32.362 38.4676 32.3159C38.4573 32.362 38.4512 32.408 38.4399 32.4541Z" fill="#00AAE1"/>
<path d="M38.5269 31.9948C38.5463 31.8331 38.5596 31.6704 38.5596 31.5046C38.5596 31.6704 38.5473 31.8331 38.5269 31.9948Z" fill="#00AAE1"/>
<path d="M4.27631 38.9754C4.15659 38.8454 4.04608 38.7073 3.9458 38.563C4.04608 38.7073 4.15762 38.8444 4.27631 38.9754Z" fill="#00AAE1"/>
<path d="M46.3618 13.9404L46.3664 13.9485C46.3664 13.9485 46.363 13.9439 46.3618 13.9404Z" fill="#00AAE1"/>
<path d="M45.3364 39.3509C45.4602 39.2476 45.58 39.1401 45.6895 39.0225C45.5789 39.1391 45.4613 39.2476 45.3364 39.3509Z" fill="#00AAE1"/>
<path d="M46.3612 38.0585L38.125 33.3035L46.3612 38.0585Z" fill="#00AAE1"/>
<path d="M46.0713 13.4514C46.0867 13.475 46.0969 13.4985 46.1112 13.521C46.0969 13.4985 46.0857 13.4739 46.0703 13.4514H46.0713Z" fill="#00AAE1"/>
<path d="M25.523 40.9963C25.3501 41.0188 25.1772 41.0301 25.0032 41.0301C24.8293 41.0301 24.6563 41.0188 24.4834 40.9963C24.8282 41.0414 25.1782 41.0414 25.523 40.9963Z" fill="#00AAE1"/>
<path d="M12.5556 17.7327C12.5413 17.748 12.528 17.7644 12.5137 17.7797C12.528 17.7644 12.5403 17.748 12.5556 17.7327Z" fill="#00AAE1"/>
<path d="M27.0162 1.99801C26.393 1.63885 25.6982 1.45875 25.0034 1.45875C24.3086 1.45875 23.6138 1.63885 22.9917 1.99801L5.22284 12.2562C5.05502 12.3534 4.89744 12.4618 4.74805 12.5805C4.89744 12.4629 5.05502 12.3534 5.22284 12.2562L22.9917 1.99801C24.237 1.27866 25.7709 1.27866 27.0162 1.99801L44.785 12.2562C44.9528 12.3534 45.1104 12.4629 45.2598 12.5805C45.1104 12.4618 44.9528 12.3534 44.785 12.2562L27.0162 1.99801Z" fill="#00AAE1"/>
<path d="M12.182 18.1931C12.182 18.1931 12.1759 18.2013 12.1738 18.2064C12.1769 18.2023 12.18 18.1982 12.182 18.1931Z" fill="#00AAE1"/>
<path d="M11.883 18.6966C11.6068 19.2471 11.4482 19.8601 11.4482 20.4976V31.5027C11.4482 32.1402 11.6068 32.7521 11.883 33.3036L3.64582 38.0597C3.73075 38.2296 3.82796 38.3923 3.9354 38.5488C3.47596 37.8858 3.21094 37.0927 3.21094 36.2588V15.7415C3.21094 14.9075 3.47596 14.1145 3.9354 13.4514C3.82796 13.608 3.73075 13.7717 3.64582 13.9416L11.883 18.6977V18.6966Z" fill="#009BCC"/>
<path d="M46.3618 38.0595C46.3618 38.0595 46.3659 38.0534 46.367 38.0493C46.281 38.2222 46.1828 38.389 46.0723 38.5487C46.1797 38.3921 46.2769 38.2294 46.3618 38.0595Z" fill="#00AAE1"/>
<path d="M46.582 14.4703C46.5268 14.3087 46.4643 14.149 46.3896 13.9966C46.4633 14.1501 46.5278 14.3077 46.582 14.4703Z" fill="#00AAE1"/>
<path d="M37.8247 33.8068C37.8247 33.8068 37.8308 33.7975 37.8339 33.7935C37.8308 33.7975 37.8278 33.8027 37.8247 33.8068Z" fill="#00AAE1"/>
<path d="M46.7242 15.027C46.6955 14.8725 46.6618 14.719 46.6157 14.5696C46.6618 14.719 46.6966 14.8714 46.7242 15.027Z" fill="#00AAE1"/>
<path d="M45.6895 12.9764C45.58 12.8598 45.4603 12.7513 45.3354 12.6479C45.4603 12.7513 45.579 12.8598 45.6895 12.9764Z" fill="#00AAE1"/>
<path d="M46.062 13.437C45.9617 13.2928 45.8501 13.1556 45.7314 13.0247C45.8512 13.1556 45.9617 13.2928 46.062 13.437Z" fill="#00AAE1"/>
<path d="M46.3608 13.9404C46.2759 13.7716 46.1787 13.6089 46.0723 13.4534C46.1797 13.6089 46.2759 13.7716 46.3608 13.9404Z" fill="#00AAE1"/>
<path d="M46.3882 38.0053C46.4639 37.8507 46.5273 37.6901 46.5826 37.5264C46.5284 37.6901 46.4629 37.8497 46.3882 38.0053Z" fill="#00AAE1"/>
<path d="M45.7314 38.9754C45.8501 38.8444 45.9617 38.7083 46.062 38.563C45.9607 38.7073 45.8512 38.8444 45.7314 38.9754Z" fill="#00AAE1"/>
<path d="M46.7956 36.2585C46.7956 36.4571 46.7782 36.6525 46.7495 36.8459C46.7782 36.6535 46.7956 36.4571 46.7956 36.2585Z" fill="#00AAE1"/>
<path d="M46.6157 37.4314C46.6618 37.2809 46.6966 37.1275 46.7252 36.9719C46.6976 37.1275 46.6618 37.2809 46.6157 37.4314Z" fill="#00AAE1"/>
<path d="M46.7956 15.7403C46.7956 15.5418 46.7782 15.3464 46.7495 15.155C46.7782 15.3474 46.7956 15.5428 46.7956 15.7403Z" fill="#00AAE1"/>
<path d="M12.9082 34.5959C12.9348 34.6174 12.9583 34.643 12.986 34.6645C12.9594 34.643 12.9348 34.6185 12.9082 34.5959Z" fill="#00AAE1"/>
<path d="M37.4521 34.2673C37.4665 34.252 37.4798 34.2346 37.4941 34.2192C37.4798 34.2346 37.4665 34.252 37.4521 34.2673Z" fill="#00AAE1"/>
<path d="M12.5137 34.2192C12.528 34.2346 12.5413 34.252 12.5556 34.2673C12.5413 34.252 12.528 34.2346 12.5137 34.2192Z" fill="#00AAE1"/>
<path d="M37.0215 34.6633C37.0491 34.6418 37.0726 34.6172 37.0993 34.5947C37.0726 34.6172 37.0491 34.6418 37.0215 34.6633Z" fill="#00AAE1"/>
<path d="M4.67143 12.6479C4.54762 12.7513 4.42789 12.8598 4.31738 12.9764C4.42789 12.8598 4.54659 12.7513 4.67143 12.6479Z" fill="#00AAE1"/>
<path d="M4.27631 13.0247C4.15762 13.1556 4.04608 13.2928 3.9458 13.437C4.0471 13.2928 4.15659 13.1556 4.27631 13.0247Z" fill="#00AAE1"/>
<path d="M23.4707 40.7263C23.7981 40.8614 24.1389 40.9514 24.4837 40.9954C24.1389 40.9504 23.7981 40.8604 23.4707 40.7263Z" fill="#00AAE1"/>
<path d="M12.1729 33.7935C12.1729 33.7935 12.179 33.8027 12.1821 33.8068C12.179 33.8027 12.1759 33.7975 12.1729 33.7935Z" fill="#00AAE1"/>
<path d="M46.3608 13.9415L38.1246 18.6965C38.0397 18.5267 37.9425 18.3629 37.834 18.2064C37.831 18.2023 37.8279 18.1982 37.8258 18.1931C37.7256 18.0478 37.613 17.9107 37.4943 17.7797C37.48 17.7643 37.4677 17.748 37.4524 17.7326C37.3429 17.616 37.2232 17.5075 37.0983 17.4042C37.0717 17.3827 37.0482 17.3581 37.0216 17.3366C36.8722 17.2179 36.7146 17.1095 36.5468 17.0122L27.0151 11.5092C26.393 11.15 25.6982 10.9699 25.0034 10.9699V1.45874C25.6982 1.45874 26.393 1.63883 27.0151 1.998L44.784 12.2561C44.9518 12.3534 45.1094 12.4618 45.2588 12.5805C45.2854 12.602 45.3089 12.6266 45.3355 12.6481C45.4593 12.7514 45.5791 12.8599 45.6896 12.9765C45.7039 12.9919 45.7172 13.0093 45.7315 13.0246C45.8502 13.1556 45.9618 13.2927 46.062 13.437C46.0651 13.4421 46.0682 13.4462 46.0712 13.4513C46.0866 13.4738 46.0979 13.4984 46.1122 13.5209C46.2022 13.657 46.2872 13.7961 46.3608 13.9415Z" fill="#007296"/>
<path d="M46.362 13.9404L46.3608 13.9416L46.362 13.9404Z" fill="#00AAE1"/>
<path d="M22.9917 1.998C23.6138 1.63883 24.3086 1.45874 25.0034 1.45874V10.9699C24.3086 10.9699 23.6138 11.15 22.9917 11.5092L13.4601 17.0122C13.2922 17.1095 13.1347 17.2179 12.9853 17.3366C12.9587 17.3581 12.9351 17.3816 12.9085 17.4042C12.7847 17.5075 12.664 17.616 12.5545 17.7326C12.5401 17.748 12.5268 17.7643 12.5125 17.7797C12.3938 17.9107 12.2813 18.0478 12.181 18.1931C12.1779 18.1972 12.1748 18.2013 12.1728 18.2064C12.0654 18.3629 11.9681 18.5267 11.8822 18.6965L3.646 13.9404C3.73093 13.7706 3.82814 13.6068 3.93558 13.4503C3.93865 13.4452 3.94172 13.4411 3.94479 13.436C4.04507 13.2917 4.1566 13.1546 4.2753 13.0236C4.28962 13.0082 4.30293 12.9908 4.31725 12.9755C4.42674 12.8588 4.54646 12.7504 4.6713 12.647C4.6979 12.6255 4.72144 12.601 4.74804 12.5795C4.89744 12.4608 5.05502 12.3523 5.22283 12.2551L22.9917 1.998Z" fill="#008DBA"/>
<path d="M25.0034 41.0301C25.1774 41.0301 25.3503 41.0189 25.5232 40.9964C26.041 40.9288 26.5485 40.76 27.0151 40.4909L36.5468 34.9878C36.7146 34.8906 36.8722 34.7821 37.0216 34.6634C37.0482 34.6419 37.0727 34.6174 37.0993 34.5949C37.2232 34.4915 37.3429 34.3841 37.4524 34.2664C37.4667 34.251 37.48 34.2337 37.4943 34.2183C37.613 34.0873 37.7245 33.9502 37.8259 33.8059C37.8289 33.8018 37.832 33.7967 37.8351 33.7926C37.9425 33.6361 38.0397 33.4724 38.1257 33.3025L46.3619 38.0576C46.2759 38.2264 46.1807 38.3911 46.0723 38.5477C46.0692 38.5528 46.0661 38.5569 46.0631 38.562C46.0661 38.5569 46.0692 38.5528 46.0723 38.5477C46.1797 38.3911 46.2769 38.2284 46.3619 38.0586C46.2769 38.2284 46.1797 38.3922 46.0723 38.5477C46.0692 38.5528 46.0661 38.5569 46.0631 38.562C45.9628 38.7063 45.8513 38.8434 45.7326 38.9744C45.7182 38.9898 45.7049 39.0071 45.6906 39.0225C45.5811 39.1391 45.4614 39.2466 45.3376 39.351C45.311 39.3735 45.2874 39.398 45.2598 39.4195C45.1104 39.5372 44.9528 39.6467 44.785 39.7439L27.0162 50.002C26.5496 50.2712 26.042 50.44 25.5243 50.5075C25.3513 50.53 25.1784 50.5413 25.0044 50.5413V41.0301H25.0034Z" fill="#3BBFEF"/>
<path d="M3.93558 38.5487C3.82814 38.3921 3.73093 38.2294 3.646 38.0596L11.8832 33.3035C11.9681 33.4733 12.0654 33.637 12.1738 33.7936C12.1769 33.7977 12.18 33.8028 12.183 33.8069C12.2833 33.9512 12.3948 34.0883 12.5146 34.2193C12.5289 34.2346 12.5422 34.252 12.5565 34.2674C12.666 34.384 12.7857 34.4915 12.9095 34.5958C12.9361 34.6184 12.9597 34.6429 12.9873 34.6644C13.1367 34.7821 13.2943 34.8916 13.4621 34.9888L15.2722 36.0335L12.5013 42.6069L21.4149 39.5801L22.9937 40.4918C23.1493 40.5819 23.3099 40.6607 23.4726 40.7282C23.8001 40.8633 24.1408 40.9533 24.4856 40.9973C24.6586 41.0198 24.8315 41.0311 25.0055 41.0311V50.5423C24.4846 50.5423 23.9638 50.441 23.4726 50.2394C23.3089 50.1719 23.1493 50.0931 22.9937 50.003L5.22284 39.7438C5.05502 39.6466 4.89744 39.5382 4.74804 39.4195C4.72144 39.398 4.69688 39.3734 4.67028 39.3509C4.54646 39.2476 4.42674 39.1401 4.31725 39.0225C4.30293 39.0071 4.28962 38.9897 4.2753 38.9744C4.1566 38.8434 4.04507 38.7073 3.94479 38.562C3.94172 38.5569 3.93865 38.5528 3.93558 38.5477V38.5487Z" fill="#00AAE1"/>
<path d="M38.125 33.3035C38.1925 33.1674 38.2539 33.0282 38.3071 32.886C38.3102 32.8778 38.3123 32.8696 38.3153 32.8614C38.3634 32.7284 38.4054 32.5933 38.4402 32.4552C38.4514 32.4102 38.4586 32.3631 38.4678 32.3171C38.4903 32.2106 38.5128 32.1042 38.5271 31.9958C38.5476 31.8341 38.5599 31.6714 38.5599 31.5056V20.4974C38.5599 20.3306 38.5476 20.1669 38.5271 20.0042C38.5138 19.8978 38.4913 19.7934 38.4688 19.689C38.4586 19.6409 38.4514 19.5918 38.4402 19.5448C38.4054 19.4087 38.3644 19.2746 38.3163 19.1426C38.3133 19.1324 38.3102 19.1232 38.3061 19.1129C38.2529 18.9717 38.1936 18.8326 38.126 18.6985V18.6965L46.3622 13.9414C46.3622 13.9414 46.3653 13.9465 46.3663 13.9486C46.3745 13.9649 46.3827 13.9813 46.3909 13.9977C46.4656 14.1512 46.528 14.3098 46.5832 14.4715C46.5945 14.5042 46.6068 14.5369 46.617 14.5707C46.6631 14.7201 46.6978 14.8726 46.7255 15.0281C46.7337 15.0711 46.7449 15.112 46.7511 15.156C46.7797 15.3484 46.7971 15.5438 46.7971 15.7413V36.2597C46.7971 36.4582 46.7797 36.6536 46.7511 36.847C46.7449 36.89 46.7337 36.9309 46.7255 36.9729C46.6968 37.1284 46.662 37.2829 46.616 37.4323C46.6058 37.4651 46.5945 37.4958 46.5832 37.5285C46.528 37.6922 46.4645 37.8529 46.3888 38.0074C46.3817 38.0217 46.3745 38.0371 46.3673 38.0514C46.3653 38.0545 46.3632 38.0575 46.3622 38.0606L38.126 33.3055L38.125 33.3035Z" fill="#66CDF5"/>
<path d="M46.3618 38.0586C46.2769 38.2285 46.1797 38.3922 46.0723 38.5478C46.1807 38.3922 46.2759 38.2275 46.3618 38.0576V38.0586Z" fill="#00AAE1"/>
<path d="M46.3608 13.9415C46.2871 13.7962 46.2032 13.657 46.1122 13.5209C46.0978 13.4994 46.0866 13.4749 46.0723 13.4534C46.1797 13.6089 46.2759 13.7716 46.3608 13.9404V13.9415Z" fill="#00AAE1"/>
<path d="M46.062 38.5629C46.062 38.5629 46.0682 38.5537 46.0712 38.5486L46.062 38.5629Z" fill="#00AAE1"/>
</g>
<path d="M67.2402 39.1328C61.3516 39.1328 57.6074 36.2324 57.291 31.8555L57.2734 31.6094H61.668L61.6855 31.7852C61.8965 33.9121 64.1641 35.3184 67.3809 35.3184C70.4395 35.3184 72.584 33.8066 72.584 31.627V31.6094C72.584 29.7812 71.2656 28.6738 67.9961 27.9707L65.2715 27.4082C60.0859 26.3184 57.8359 23.8926 57.8359 20.1133V20.0957C57.8359 15.5605 61.7383 12.502 67.2227 12.502C72.8477 12.502 76.3457 15.5781 76.6621 19.6562L76.6797 19.8848H72.3379L72.3027 19.6738C71.9863 17.7051 70.1055 16.2988 67.2051 16.3164C64.3926 16.3164 62.3887 17.6348 62.3887 19.7969V19.8145C62.3887 21.6074 63.6719 22.7324 66.8359 23.4004L69.5605 23.9805C74.9043 25.1055 77.1367 27.25 77.1367 31.082V31.0996C77.1367 36.0391 73.3223 39.1328 67.2402 39.1328ZM89.3359 38.5879C84.9238 38.5879 83.1133 37.1113 83.1133 33.4023V22.6797H80.125V19.2871H83.1133V14.5762H87.5605V19.2871H91.6211V22.6797H87.5605V32.3652C87.5605 34.2812 88.3164 35.0898 90.1445 35.0898C90.7598 35.0898 91.0938 35.0723 91.6211 35.0195V38.3945C90.9883 38.5176 90.1797 38.5879 89.3359 38.5879ZM104.102 38.8867C98.3359 38.8867 94.8555 35.125 94.8555 28.9023V28.8672C94.8555 22.6973 98.3887 18.918 104.102 18.918C109.832 18.918 113.348 22.6797 113.348 28.8672V28.9023C113.348 35.125 109.85 38.8867 104.102 38.8867ZM104.102 35.3359C107.143 35.3359 108.865 32.9629 108.865 28.9199V28.8848C108.865 24.8418 107.125 22.4512 104.102 22.4512C101.061 22.4512 99.3203 24.8418 99.3203 28.8848V28.9199C99.3203 32.9629 101.061 35.3359 104.102 35.3359ZM125.986 38.8867C120.203 38.8867 116.793 35.1426 116.793 28.8672V28.832C116.793 22.627 120.186 18.918 125.969 18.918C130.908 18.918 133.861 21.6602 134.354 25.6328V25.7031H130.223L130.205 25.6504C129.801 23.7871 128.377 22.4512 125.986 22.4512C122.998 22.4512 121.24 24.8066 121.24 28.832V28.8672C121.24 32.9453 123.016 35.3359 125.986 35.3359C128.254 35.3359 129.643 34.2988 130.188 32.2773L130.223 32.207L134.354 32.1895L134.318 32.3301C133.686 36.2676 130.855 38.8867 125.986 38.8867ZM138.695 38.5V11.8516H143.072V27.1621H143.371L150.455 19.2871H155.518L147.783 27.4082L156.045 38.5H150.771L144.602 30.1855L143.072 31.75V38.5H138.695Z" fill="#179CCE"/>
<path d="M170.16 39.1328C162.971 39.1328 158.506 34.0352 158.506 25.8438V25.8086C158.506 17.582 162.953 12.502 170.143 12.502C175.908 12.502 180.285 16.1582 180.883 21.3438V21.4844H176.436L176.418 21.4141C175.768 18.4082 173.342 16.4219 170.143 16.4219C165.836 16.4219 163.146 20.0254 163.146 25.791V25.8262C163.146 31.6094 165.836 35.2129 170.16 35.2129C173.377 35.2129 175.768 33.4199 176.418 30.625L176.436 30.5371H180.883V30.6602C180.215 35.7402 176.014 39.1328 170.16 39.1328ZM185.664 38.5V11.8516H190.041V38.5H185.664ZM201.941 38.8867C197.617 38.8867 195.402 36.2852 195.402 31.7148V19.2871H199.779V30.7129C199.779 33.6836 200.887 35.1953 203.523 35.1953C206.354 35.1953 207.865 33.3672 207.865 30.4844V19.2871H212.242V38.5H207.865V35.582H207.566C206.67 37.6387 204.719 38.8867 201.941 38.8867ZM228.273 38.8164C225.584 38.8164 223.492 37.5859 222.438 35.4941H222.139V38.5H217.762V11.8516H222.139V22.3457H222.438C223.439 20.2715 225.637 18.9707 228.273 18.9707C233.143 18.9707 236.166 22.7676 236.166 28.8848V28.9199C236.166 35.002 233.09 38.8164 228.273 38.8164ZM226.902 35.125C229.891 35.125 231.701 32.7871 231.701 28.9199V28.8848C231.701 25.0176 229.891 22.6621 226.902 22.6621C223.932 22.6621 222.086 25.0352 222.086 28.8848V28.9199C222.086 32.7695 223.932 35.125 226.902 35.125ZM247.803 38.8867C242.916 38.8867 239.963 36.6367 239.594 33.3848V33.3496H243.936L243.953 33.3848C244.41 34.7207 245.693 35.6523 247.873 35.6523C250.053 35.6523 251.564 34.668 251.564 33.2266V33.1914C251.564 32.0664 250.721 31.3281 248.611 30.8535L245.5 30.1504C241.844 29.3418 240.104 27.6191 240.104 24.7891V24.7715C240.104 21.3086 243.268 18.918 247.803 18.918C252.479 18.918 255.273 21.2383 255.555 24.3496V24.3848H251.441L251.424 24.332C251.107 23.1191 249.842 22.1348 247.785 22.1348C245.834 22.1348 244.428 23.084 244.428 24.5254V24.543C244.428 25.668 245.236 26.3535 247.311 26.8281L250.422 27.5137C254.184 28.3574 255.959 29.957 255.959 32.752V32.7871C255.959 36.4434 252.531 38.8867 247.803 38.8867Z" fill="#127398"/>
<defs>
<clipPath id="clip0_0_2854">
<rect width="43.5846" height="49.0826" fill="white" transform="translate(3.21094 1.45874)"/>
</clipPath>
</defs>
</svg>
