<svg width="468" height="540" viewBox="0 0 468 540" fill="none" xmlns="http://www.w3.org/2000/svg">
<rect x="12.5" y="12.5" width="443" height="515" rx="37.5" fill="#00ABE1" stroke="white" stroke-width="25"/>
<path d="M184.329 127.999H177.676V134.651H184.329V127.999Z" fill="white"/>
<path d="M191.04 127.999H184.388V134.651H191.04V127.999Z" fill="white"/>
<path d="M204.359 127.999H197.707V134.651H204.359V127.999Z" fill="white"/>
<path d="M217.663 127.999H211.01V134.651H217.663V127.999Z" fill="white"/>
<path d="M224.314 127.999H217.662V134.651H224.314V127.999Z" fill="white"/>
<path d="M237.619 127.999H230.967V134.651H237.619V127.999Z" fill="white"/>
<path d="M244.242 127.999H237.589V134.651H244.242V127.999Z" fill="white"/>
<path d="M250.879 127.999H244.227V134.651H250.879V127.999Z" fill="white"/>
<path d="M270.864 127.999H264.212V134.651H270.864V127.999Z" fill="white"/>
<path d="M184.329 134.651H177.676V141.304H184.329V134.651Z" fill="white"/>
<path d="M197.706 134.651H191.054V141.304H197.706V134.651Z" fill="white"/>
<path d="M210.966 134.651H204.314V141.304H210.966V134.651Z" fill="white"/>
<path d="M217.663 134.651H211.01V141.304H217.663V134.651Z" fill="white"/>
<path d="M224.314 134.651H217.662V141.304H224.314V134.651Z" fill="white"/>
<path d="M237.619 134.651H230.967V141.304H237.619V134.651Z" fill="white"/>
<path d="M244.241 134.651H237.589V141.304H244.241V134.651Z" fill="white"/>
<path d="M250.879 134.651H244.227V141.304H250.879V134.651Z" fill="white"/>
<path d="M257.56 134.651H250.908V141.304H257.56V134.651Z" fill="white"/>
<path d="M264.212 134.651H257.56V141.304H264.212V134.651Z" fill="white"/>
<path d="M277.532 134.651H270.879V141.304H277.532V134.651Z" fill="white"/>
<path d="M184.329 141.311H177.676V147.963H184.329V141.311Z" fill="white"/>
<path d="M191.04 141.311H184.388V147.963H191.04V141.311Z" fill="white"/>
<path d="M197.706 141.311H191.054V147.963H197.706V141.311Z" fill="white"/>
<path d="M204.359 141.311H197.707V147.963H204.359V141.311Z" fill="white"/>
<path d="M210.966 141.311H204.314V147.963H210.966V141.311Z" fill="white"/>
<path d="M217.663 141.311H211.01V147.963H217.663V141.311Z" fill="white"/>
<path d="M224.314 141.311H217.662V147.963H224.314V141.311Z" fill="white"/>
<path d="M237.619 141.311H230.967V147.963H237.619V141.311Z" fill="white"/>
<path d="M257.56 141.311H250.908V147.963H257.56V141.311Z" fill="white"/>
<path d="M264.212 141.311H257.56V147.963H264.212V141.311Z" fill="white"/>
<path d="M270.864 141.311H264.212V147.963H270.864V141.311Z" fill="white"/>
<path d="M284.139 141.311H277.487V147.963H284.139V141.311Z" fill="white"/>
<path d="M290.851 141.311H284.198V147.963H290.851V141.311Z" fill="white"/>
<path d="M191.04 147.955H184.388V154.607H191.04V147.955Z" fill="white"/>
<path d="M197.706 147.955H191.054V154.607H197.706V147.955Z" fill="white"/>
<path d="M204.359 147.955H197.707V154.607H204.359V147.955Z" fill="white"/>
<path d="M224.314 147.955H217.662V154.607H224.314V147.955Z" fill="white"/>
<path d="M237.619 147.955H230.967V154.607H237.619V147.955Z" fill="white"/>
<path d="M244.241 147.955H237.589V154.607H244.241V147.955Z" fill="white"/>
<path d="M264.212 147.955H257.56V154.607H264.212V147.955Z" fill="white"/>
<path d="M290.851 147.955H284.198V154.607H290.851V147.955Z" fill="white"/>
<path d="M184.329 154.607H177.676V161.259H184.329V154.607Z" fill="white"/>
<path d="M197.706 154.607H191.054V161.259H197.706V154.607Z" fill="white"/>
<path d="M217.663 154.607H211.01V161.259H217.663V154.607Z" fill="white"/>
<path d="M230.981 154.607H224.329V161.259H230.981V154.607Z" fill="white"/>
<path d="M237.619 154.607H230.967V161.259H237.619V154.607Z" fill="white"/>
<path d="M257.56 154.607H250.908V161.259H257.56V154.607Z" fill="white"/>
<path d="M270.864 154.607H264.212V161.259H270.864V154.607Z" fill="white"/>
<path d="M277.532 154.607H270.879V161.259H277.532V154.607Z" fill="white"/>
<path d="M217.663 161.259H211.01V167.911H217.663V161.259Z" fill="white"/>
<path d="M224.314 161.259H217.662V167.911H224.314V161.259Z" fill="white"/>
<path d="M230.981 161.259H224.329V167.911H230.981V161.259Z" fill="white"/>
<path d="M237.619 161.259H230.967V167.911H237.619V161.259Z" fill="white"/>
<path d="M264.212 161.259H257.56V167.911H264.212V161.259Z" fill="white"/>
<path d="M284.139 161.259H277.487V167.911H284.139V161.259Z" fill="white"/>
<path d="M290.851 161.259H284.198V167.911H290.851V161.259Z" fill="white"/>
<path d="M184.329 167.911H177.676V174.564H184.329V167.911Z" fill="white"/>
<path d="M197.706 167.911H191.054V174.564H197.706V167.911Z" fill="white"/>
<path d="M210.966 167.911H204.314V174.564H210.966V167.911Z" fill="white"/>
<path d="M224.314 167.911H217.662V174.564H224.314V167.911Z" fill="white"/>
<path d="M237.619 167.911H230.967V174.564H237.619V167.911Z" fill="white"/>
<path d="M250.879 167.911H244.227V174.564H250.879V167.911Z" fill="white"/>
<path d="M264.212 167.911H257.56V174.564H264.212V167.911Z" fill="white"/>
<path d="M277.532 167.911H270.879V174.564H277.532V167.911Z" fill="white"/>
<path d="M290.851 167.911H284.198V174.564H290.851V167.911Z" fill="white"/>
<path d="M191.04 174.571H184.388V181.223H191.04V174.571Z" fill="white"/>
<path d="M204.359 174.571H197.707V181.223H204.359V174.571Z" fill="white"/>
<path d="M217.663 174.571H211.01V181.223H217.663V174.571Z" fill="white"/>
<path d="M224.314 174.571H217.662V181.223H224.314V174.571Z" fill="white"/>
<path d="M230.981 174.571H224.329V181.223H230.981V174.571Z" fill="white"/>
<path d="M237.619 174.571H230.967V181.223H237.619V174.571Z" fill="white"/>
<path d="M257.56 174.571H250.908V181.223H257.56V174.571Z" fill="white"/>
<path d="M131.171 181.215H124.519V187.868H131.171V181.215Z" fill="white"/>
<path d="M151.186 181.215H144.534V187.868H151.186V181.215Z" fill="white"/>
<path d="M157.78 181.215H151.127V187.868H157.78V181.215Z" fill="white"/>
<path d="M164.432 181.215H157.779V187.868H164.432V181.215Z" fill="white"/>
<path d="M171.025 181.215H164.373V187.868H171.025V181.215Z" fill="white"/>
<path d="M177.691 181.215H171.039V187.868H177.691V181.215Z" fill="white"/>
<path d="M184.329 181.215H177.676V187.868H184.329V181.215Z" fill="white"/>
<path d="M191.04 181.215H184.388V187.868H191.04V181.215Z" fill="white"/>
<path d="M210.966 181.215H204.314V187.868H210.966V181.215Z" fill="white"/>
<path d="M224.314 181.215H217.662V187.868H224.314V181.215Z" fill="white"/>
<path d="M244.241 181.215H237.589V187.868H244.241V181.215Z" fill="white"/>
<path d="M257.56 181.215H250.908V187.868H257.56V181.215Z" fill="white"/>
<path d="M264.212 181.215H257.56V187.868H264.212V181.215Z" fill="white"/>
<path d="M297.458 181.215H290.806V187.868H297.458V181.215Z" fill="white"/>
<path d="M317.429 181.215H310.777V187.868H317.429V181.215Z" fill="white"/>
<path d="M330.718 181.215H324.066V187.868H330.718V181.215Z" fill="white"/>
<path d="M337.4 181.215H330.748V187.868H337.4V181.215Z" fill="white"/>
<path d="M344.007 181.215H337.355V187.868H344.007V181.215Z" fill="white"/>
<path d="M131.171 187.875H124.519V194.527H131.171V187.875Z" fill="white"/>
<path d="M144.475 187.875H137.823V194.527H144.475V187.875Z" fill="white"/>
<path d="M184.329 187.875H177.676V194.527H184.329V187.875Z" fill="white"/>
<path d="M191.04 187.875H184.388V194.527H191.04V187.875Z" fill="white"/>
<path d="M197.706 187.875H191.054V194.527H197.706V187.875Z" fill="white"/>
<path d="M204.359 187.875H197.707V194.527H204.359V187.875Z" fill="white"/>
<path d="M217.663 187.875H211.01V194.527H217.663V187.875Z" fill="white"/>
<path d="M224.314 187.875H217.662V194.527H224.314V187.875Z" fill="white"/>
<path d="M230.981 187.875H224.329V194.527H230.981V187.875Z" fill="white"/>
<path d="M250.879 187.875H244.227V194.527H250.879V187.875Z" fill="white"/>
<path d="M257.56 187.875H250.908V194.527H257.56V187.875Z" fill="white"/>
<path d="M270.864 187.875H264.212V194.527H270.864V187.875Z" fill="white"/>
<path d="M277.532 187.875H270.879V194.527H277.532V187.875Z" fill="white"/>
<path d="M284.139 187.875H277.487V194.527H284.139V187.875Z" fill="white"/>
<path d="M317.429 187.875H310.777V194.527H317.429V187.875Z" fill="white"/>
<path d="M324.051 187.875H317.398V194.527H324.051V187.875Z" fill="white"/>
<path d="M330.718 187.875H324.066V194.527H330.718V187.875Z" fill="white"/>
<path d="M131.171 194.527H124.519V201.179H131.171V194.527Z" fill="white"/>
<path d="M137.779 194.527H131.126V201.179H137.779V194.527Z" fill="white"/>
<path d="M144.475 194.527H137.823V201.179H144.475V194.527Z" fill="white"/>
<path d="M151.187 194.527H144.535V201.179H151.187V194.527Z" fill="white"/>
<path d="M157.78 194.527H151.127V201.179H157.78V194.527Z" fill="white"/>
<path d="M164.432 194.527H157.779V201.179H164.432V194.527Z" fill="white"/>
<path d="M171.025 194.527H164.373V201.179H171.025V194.527Z" fill="white"/>
<path d="M184.329 194.527H177.676V201.179H184.329V194.527Z" fill="white"/>
<path d="M204.359 194.527H197.707V201.179H204.359V194.527Z" fill="white"/>
<path d="M217.663 194.527H211.01V201.179H217.663V194.527Z" fill="white"/>
<path d="M230.981 194.527H224.329V201.179H230.981V194.527Z" fill="white"/>
<path d="M244.242 194.527H237.589V201.179H244.242V194.527Z" fill="white"/>
<path d="M277.532 194.527H270.879V201.179H277.532V194.527Z" fill="white"/>
<path d="M284.139 194.527H277.487V201.179H284.139V194.527Z" fill="white"/>
<path d="M304.11 194.527H297.458V201.179H304.11V194.527Z" fill="white"/>
<path d="M317.429 194.527H310.777V201.179H317.429V194.527Z" fill="white"/>
<path d="M324.051 194.527H317.398V201.179H324.051V194.527Z" fill="white"/>
<path d="M330.718 194.527H324.066V201.179H330.718V194.527Z" fill="white"/>
<path d="M337.4 194.527H330.748V201.179H337.4V194.527Z" fill="white"/>
<path d="M344.007 194.527H337.355V201.179H344.007V194.527Z" fill="white"/>
<path d="M137.779 201.179H131.126V207.831H137.779V201.179Z" fill="white"/>
<path d="M157.78 201.179H151.127V207.831H157.78V201.179Z" fill="white"/>
<path d="M164.432 201.179H157.779V207.831H164.432V201.179Z" fill="white"/>
<path d="M177.691 201.179H171.039V207.831H177.691V201.179Z" fill="white"/>
<path d="M184.329 201.179H177.676V207.831H184.329V201.179Z" fill="white"/>
<path d="M197.706 201.179H191.054V207.831H197.706V201.179Z" fill="white"/>
<path d="M204.359 201.179H197.707V207.831H204.359V201.179Z" fill="white"/>
<path d="M210.966 201.179H204.314V207.831H210.966V201.179Z" fill="white"/>
<path d="M217.663 201.179H211.01V207.831H217.663V201.179Z" fill="white"/>
<path d="M230.981 201.179H224.329V207.831H230.981V201.179Z" fill="white"/>
<path d="M237.619 201.179H230.967V207.831H237.619V201.179Z" fill="white"/>
<path d="M244.241 201.179H237.589V207.831H244.241V201.179Z" fill="white"/>
<path d="M250.879 201.179H244.227V207.831H250.879V201.179Z" fill="white"/>
<path d="M257.56 201.179H250.908V207.831H257.56V201.179Z" fill="white"/>
<path d="M284.139 201.179H277.487V207.831H284.139V201.179Z" fill="white"/>
<path d="M297.458 201.179H290.806V207.831H297.458V201.179Z" fill="white"/>
<path d="M310.807 201.179H304.154V207.831H310.807V201.179Z" fill="white"/>
<path d="M330.718 201.179H324.066V207.831H330.718V201.179Z" fill="white"/>
<path d="M337.4 201.179H330.748V207.831H337.4V201.179Z" fill="white"/>
<path d="M344.007 201.179H337.355V207.831H344.007V201.179Z" fill="white"/>
<path d="M131.171 207.831H124.519V214.483H131.171V207.831Z" fill="white"/>
<path d="M137.779 207.831H131.126V214.483H137.779V207.831Z" fill="white"/>
<path d="M144.475 207.831H137.823V214.483H144.475V207.831Z" fill="white"/>
<path d="M151.187 207.831H144.535V214.483H151.187V207.831Z" fill="white"/>
<path d="M171.025 207.831H164.373V214.483H171.025V207.831Z" fill="white"/>
<path d="M184.329 207.831H177.676V214.483H184.329V207.831Z" fill="white"/>
<path d="M197.706 207.831H191.054V214.483H197.706V207.831Z" fill="white"/>
<path d="M204.359 207.831H197.707V214.483H204.359V207.831Z" fill="white"/>
<path d="M217.663 207.831H211.01V214.483H217.663V207.831Z" fill="white"/>
<path d="M230.981 207.831H224.329V214.483H230.981V207.831Z" fill="white"/>
<path d="M237.619 207.831H230.967V214.483H237.619V207.831Z" fill="white"/>
<path d="M250.879 207.831H244.227V214.483H250.879V207.831Z" fill="white"/>
<path d="M257.56 207.831H250.908V214.483H257.56V207.831Z" fill="white"/>
<path d="M264.212 207.831H257.56V214.483H264.212V207.831Z" fill="white"/>
<path d="M290.851 207.831H284.198V214.483H290.851V207.831Z" fill="white"/>
<path d="M304.11 207.831H297.458V214.483H304.11V207.831Z" fill="white"/>
<path d="M131.171 214.476H124.519V221.128H131.171V214.476Z" fill="white"/>
<path d="M144.475 214.476H137.823V221.128H144.475V214.476Z" fill="white"/>
<path d="M157.78 214.476H151.127V221.128H157.78V214.476Z" fill="white"/>
<path d="M164.432 214.476H157.779V221.128H164.432V214.476Z" fill="white"/>
<path d="M204.359 214.476H197.707V221.128H204.359V214.476Z" fill="white"/>
<path d="M210.966 214.476H204.314V221.128H210.966V214.476Z" fill="white"/>
<path d="M217.663 214.476H211.01V221.128H217.663V214.476Z" fill="white"/>
<path d="M224.314 214.476H217.662V221.128H224.314V214.476Z" fill="white"/>
<path d="M250.879 214.476H244.227V221.128H250.879V214.476Z" fill="white"/>
<path d="M277.532 214.476H270.879V221.128H277.532V214.476Z" fill="white"/>
<path d="M284.139 214.476H277.487V221.128H284.139V214.476Z" fill="white"/>
<path d="M310.807 214.476H304.154V221.128H310.807V214.476Z" fill="white"/>
<path d="M137.779 221.135H131.126V227.787H137.779V221.135Z" fill="white"/>
<path d="M144.475 221.135H137.823V227.787H144.475V221.135Z" fill="white"/>
<path d="M151.187 221.135H144.535V227.788H151.187V221.135Z" fill="white"/>
<path d="M157.78 221.135H151.127V227.787H157.78V221.135Z" fill="white"/>
<path d="M171.025 221.135H164.373V227.787H171.025V221.135Z" fill="white"/>
<path d="M184.329 221.135H177.676V227.787H184.329V221.135Z" fill="white"/>
<path d="M191.04 221.135H184.388V227.787H191.04V221.135Z" fill="white"/>
<path d="M204.359 221.135H197.707V227.787H204.359V221.135Z" fill="white"/>
<path d="M210.966 221.135H204.314V227.787H210.966V221.135Z" fill="white"/>
<path d="M230.981 221.135H224.329V227.787H230.981V221.135Z" fill="white"/>
<path d="M237.619 221.135H230.967V227.787H237.619V221.135Z" fill="white"/>
<path d="M244.242 221.135H237.589V227.788H244.242V221.135Z" fill="white"/>
<path d="M250.879 221.135H244.227V227.787H250.879V221.135Z" fill="white"/>
<path d="M257.56 221.135H250.908V227.787H257.56V221.135Z" fill="white"/>
<path d="M270.864 221.135H264.212V227.787H270.864V221.135Z" fill="white"/>
<path d="M277.532 221.135H270.879V227.787H277.532V221.135Z" fill="white"/>
<path d="M304.11 221.135H297.458V227.787H304.11V221.135Z" fill="white"/>
<path d="M330.718 221.135H324.066V227.787H330.718V221.135Z" fill="white"/>
<path d="M131.171 227.78H124.519V234.432H131.171V227.78Z" fill="white"/>
<path d="M144.475 227.78H137.823V234.432H144.475V227.78Z" fill="white"/>
<path d="M177.691 227.78H171.039V234.432H177.691V227.78Z" fill="white"/>
<path d="M184.329 227.78H177.676V234.432H184.329V227.78Z" fill="white"/>
<path d="M191.04 227.78H184.388V234.432H191.04V227.78Z" fill="white"/>
<path d="M197.706 227.78H191.054V234.432H197.706V227.78Z" fill="white"/>
<path d="M210.966 227.787H204.314V234.44H210.966V227.787Z" fill="white"/>
<path d="M217.663 227.78H211.01V234.432H217.663V227.78Z" fill="white"/>
<path d="M224.314 227.78H217.662V234.432H224.314V227.78Z" fill="white"/>
<path d="M257.56 227.78H250.908V234.432H257.56V227.78Z" fill="white"/>
<path d="M264.212 227.78H257.56V234.432H264.212V227.78Z" fill="white"/>
<path d="M284.139 227.78H277.487V234.432H284.139V227.78Z" fill="white"/>
<path d="M297.458 227.78H290.806V234.432H297.458V227.78Z" fill="white"/>
<path d="M310.807 227.78H304.154V234.432H310.807V227.78Z" fill="white"/>
<path d="M324.051 227.787H317.398V234.44H324.051V227.787Z" fill="white"/>
<path d="M330.718 227.78H324.066V234.432H330.718V227.78Z" fill="white"/>
<path d="M344.007 227.78H337.355V234.432H344.007V227.78Z" fill="white"/>
<path d="M151.186 234.432H144.534V241.084H151.186V234.432Z" fill="white"/>
<path d="M164.432 234.432H157.779V241.084H164.432V234.432Z" fill="white"/>
<path d="M171.025 234.432H164.373V241.084H171.025V234.432Z" fill="white"/>
<path d="M197.706 234.432H191.054V241.084H197.706V234.432Z" fill="white"/>
<path d="M204.359 234.439H197.707V241.092H204.359V234.439Z" fill="white"/>
<path d="M277.532 234.439H270.879V241.092H277.532V234.439Z" fill="white"/>
<path d="M290.851 234.432H284.198V241.084H290.851V234.432Z" fill="white"/>
<path d="M297.458 234.432H290.806V241.084H297.458V234.432Z" fill="white"/>
<path d="M304.11 234.432H297.458V241.084H304.11V234.432Z" fill="white"/>
<path d="M310.807 234.432H304.154V241.084H310.807V234.432Z" fill="white"/>
<path d="M317.429 234.432H310.777V241.084H317.429V234.432Z" fill="white"/>
<path d="M144.475 241.076H137.823V247.729H144.475V241.076Z" fill="white"/>
<path d="M151.186 241.076H144.534V247.729H151.186V241.076Z" fill="white"/>
<path d="M177.691 241.076H171.039V247.729H177.691V241.076Z" fill="white"/>
<path d="M217.663 241.076H211.01V247.729H217.663V241.076Z" fill="white"/>
<path d="M230.981 241.076H224.329V247.729H230.981V241.076Z" fill="white"/>
<path d="M250.879 241.076H244.227V247.729H250.879V241.076Z" fill="white"/>
<path d="M257.56 241.076H250.908V247.729H257.56V241.076Z" fill="white"/>
<path d="M264.212 241.076H257.56V247.729H264.212V241.076Z" fill="white"/>
<path d="M290.851 241.076H284.198V247.729H290.851V241.076Z" fill="white"/>
<path d="M304.11 241.076H297.458V247.729H304.11V241.076Z" fill="white"/>
<path d="M317.429 241.076H310.777V247.729H317.429V241.076Z" fill="white"/>
<path d="M330.718 241.076H324.066V247.729H330.718V241.076Z" fill="white"/>
<path d="M344.007 241.076H337.355V247.729H344.007V241.076Z" fill="white"/>
<path d="M137.779 247.743H131.126V254.396H137.779V247.743Z" fill="white"/>
<path d="M157.78 247.743H151.127V254.396H157.78V247.743Z" fill="white"/>
<path d="M171.025 247.743H164.373V254.396H171.025V247.743Z" fill="white"/>
<path d="M184.329 247.743H177.676V254.396H184.329V247.743Z" fill="white"/>
<path d="M197.706 247.743H191.054V254.396H197.706V247.743Z" fill="white"/>
<path d="M204.359 247.743H197.707V254.396H204.359V247.743Z" fill="white"/>
<path d="M230.981 247.743H224.329V254.396H230.981V247.743Z" fill="white"/>
<path d="M257.56 247.743H250.908V254.396H257.56V247.743Z" fill="white"/>
<path d="M264.212 247.743H257.56V254.396H264.212V247.743Z" fill="white"/>
<path d="M277.532 247.743H270.879V254.396H277.532V247.743Z" fill="white"/>
<path d="M284.139 247.743H277.487V254.396H284.139V247.743Z" fill="white"/>
<path d="M290.851 247.743H284.198V254.396H290.851V247.743Z" fill="white"/>
<path d="M297.458 247.743H290.806V254.396H297.458V247.743Z" fill="white"/>
<path d="M304.11 247.743H297.458V254.396H304.11V247.743Z" fill="white"/>
<path d="M310.807 247.743H304.154V254.396H310.807V247.743Z" fill="white"/>
<path d="M324.051 247.736H317.398V254.388H324.051V247.736Z" fill="white"/>
<path d="M330.718 247.743H324.066V254.396H330.718V247.743Z" fill="white"/>
<path d="M337.4 247.743H330.748V254.396H337.4V247.743Z" fill="white"/>
<path d="M344.007 247.743H337.355V254.396H344.007V247.743Z" fill="white"/>
<path d="M137.779 254.396H131.126V261.048H137.779V254.396Z" fill="white"/>
<path d="M144.475 254.396H137.823V261.048H144.475V254.396Z" fill="white"/>
<path d="M151.186 254.396H144.534V261.048H151.186V254.396Z" fill="white"/>
<path d="M177.691 254.396H171.039V261.048H177.691V254.396Z" fill="white"/>
<path d="M197.706 254.396H191.054V261.048H197.706V254.396Z" fill="white"/>
<path d="M224.314 254.396H217.662V261.048H224.314V254.396Z" fill="white"/>
<path d="M237.619 254.396H230.967V261.048H237.619V254.396Z" fill="white"/>
<path d="M250.879 254.396H244.227V261.048H250.879V254.396Z" fill="white"/>
<path d="M290.851 254.396H284.198V261.048H290.851V254.396Z" fill="white"/>
<path d="M297.458 254.396H290.806V261.048H297.458V254.396Z" fill="white"/>
<path d="M317.429 254.396H310.777V261.048H317.429V254.396Z" fill="white"/>
<path d="M324.051 254.396H317.398V261.048H324.051V254.396Z" fill="white"/>
<path d="M330.718 254.396H324.066V261.048H330.718V254.396Z" fill="white"/>
<path d="M137.779 261.04H131.126V267.692H137.779V261.04Z" fill="white"/>
<path d="M144.475 261.04H137.823V267.692H144.475V261.04Z" fill="white"/>
<path d="M171.025 261.04H164.373V267.692H171.025V261.04Z" fill="white"/>
<path d="M177.691 261.04H171.039V267.692H177.691V261.04Z" fill="white"/>
<path d="M184.329 261.04H177.676V267.692H184.329V261.04Z" fill="white"/>
<path d="M191.04 261.04H184.388V267.692H191.04V261.04Z" fill="white"/>
<path d="M197.706 261.04H191.054V267.692H197.706V261.04Z" fill="white"/>
<path d="M217.663 261.04H211.01V267.692H217.663V261.04Z" fill="white"/>
<path d="M230.981 261.04H224.329V267.692H230.981V261.04Z" fill="white"/>
<path d="M237.619 261.04H230.967V267.692H237.619V261.04Z" fill="white"/>
<path d="M244.241 261.04H237.589V267.692H244.241V261.04Z" fill="white"/>
<path d="M264.212 261.04H257.56V267.692H264.212V261.04Z" fill="white"/>
<path d="M290.851 261.04H284.198V267.692H290.851V261.04Z" fill="white"/>
<path d="M310.807 261.04H304.154V267.692H310.807V261.04Z" fill="white"/>
<path d="M324.051 261.04H317.398V267.692H324.051V261.04Z" fill="white"/>
<path d="M344.007 261.04H337.355V267.692H344.007V261.04Z" fill="white"/>
<path d="M131.171 267.699H124.519V274.352H131.171V267.699Z" fill="white"/>
<path d="M157.78 267.699H151.127V274.352H157.78V267.699Z" fill="white"/>
<path d="M164.432 267.699H157.779V274.352H164.432V267.699Z" fill="white"/>
<path d="M184.329 267.699H177.676V274.352H184.329V267.699Z" fill="white"/>
<path d="M191.04 267.699H184.388V274.352H191.04V267.699Z" fill="white"/>
<path d="M204.359 267.699H197.707V274.352H204.359V267.699Z" fill="white"/>
<path d="M210.966 267.699H204.314V274.352H210.966V267.699Z" fill="white"/>
<path d="M230.981 267.699H224.329V274.352H230.981V267.699Z" fill="white"/>
<path d="M244.241 267.699H237.589V274.352H244.241V267.699Z" fill="white"/>
<path d="M250.879 267.699H244.227V274.352H250.879V267.699Z" fill="white"/>
<path d="M257.56 267.699H250.908V274.352H257.56V267.699Z" fill="white"/>
<path d="M277.532 267.699H270.879V274.352H277.532V267.699Z" fill="white"/>
<path d="M284.139 267.699H277.487V274.352H284.139V267.699Z" fill="white"/>
<path d="M297.458 267.699H290.806V274.352H297.458V267.699Z" fill="white"/>
<path d="M304.11 267.699H297.458V274.352H304.11V267.699Z" fill="white"/>
<path d="M317.429 267.699H310.777V274.352H317.429V267.699Z" fill="white"/>
<path d="M324.051 267.699H317.398V274.352H324.051V267.699Z" fill="white"/>
<path d="M330.718 267.699H324.066V274.352H330.718V267.699Z" fill="white"/>
<path d="M131.171 274.344H124.519V280.997H131.171V274.344Z" fill="white"/>
<path d="M151.186 274.351H144.534V281.004H151.186V274.351Z" fill="white"/>
<path d="M157.78 274.351H151.127V281.004H157.78V274.351Z" fill="white"/>
<path d="M171.025 274.351H164.373V281.004H171.025V274.351Z" fill="white"/>
<path d="M177.691 274.351H171.039V281.004H177.691V274.351Z" fill="white"/>
<path d="M191.04 274.351H184.388V281.004H191.04V274.351Z" fill="white"/>
<path d="M210.966 274.351H204.314V281.004H210.966V274.351Z" fill="white"/>
<path d="M217.663 274.351H211.01V281.004H217.663V274.351Z" fill="white"/>
<path d="M230.981 274.351H224.329V281.004H230.981V274.351Z" fill="white"/>
<path d="M237.619 274.351H230.967V281.004H237.619V274.351Z" fill="white"/>
<path d="M250.879 274.351H244.227V281.004H250.879V274.351Z" fill="white"/>
<path d="M270.864 274.351H264.212V281.004H270.864V274.351Z" fill="white"/>
<path d="M277.532 274.344H270.879V280.997H277.532V274.344Z" fill="white"/>
<path d="M284.139 274.351H277.487V281.004H284.139V274.351Z" fill="white"/>
<path d="M304.11 274.351H297.458V281.004H304.11V274.351Z" fill="white"/>
<path d="M310.807 274.351H304.154V281.004H310.807V274.351Z" fill="white"/>
<path d="M324.051 274.351H317.398V281.004H324.051V274.351Z" fill="white"/>
<path d="M330.718 274.351H324.066V281.004H330.718V274.351Z" fill="white"/>
<path d="M337.4 274.351H330.748V281.004H337.4V274.351Z" fill="white"/>
<path d="M344.007 274.351H337.355V281.004H344.007V274.351Z" fill="white"/>
<path d="M131.171 280.996H124.519V287.648H131.171V280.996Z" fill="white"/>
<path d="M144.475 280.996H137.823V287.648H144.475V280.996Z" fill="white"/>
<path d="M151.186 280.996H144.534V287.648H151.186V280.996Z" fill="white"/>
<path d="M157.78 280.996H151.127V287.648H157.78V280.996Z" fill="white"/>
<path d="M164.432 280.996H157.779V287.648H164.432V280.996Z" fill="white"/>
<path d="M191.04 280.996H184.388V287.648H191.04V280.996Z" fill="white"/>
<path d="M197.706 280.996H191.054V287.648H197.706V280.996Z" fill="white"/>
<path d="M210.966 280.996H204.314V287.648H210.966V280.996Z" fill="white"/>
<path d="M224.314 280.996H217.662V287.648H224.314V280.996Z" fill="white"/>
<path d="M244.241 280.996H237.589V287.648H244.241V280.996Z" fill="white"/>
<path d="M277.532 280.996H270.879V287.648H277.532V280.996Z" fill="white"/>
<path d="M290.851 280.996H284.198V287.648H290.851V280.996Z" fill="white"/>
<path d="M297.458 280.996H290.806V287.648H297.458V280.996Z" fill="white"/>
<path d="M310.807 280.996H304.154V287.648H310.807V280.996Z" fill="white"/>
<path d="M330.718 280.996H324.066V287.648H330.718V280.996Z" fill="white"/>
<path d="M337.4 280.996H330.748V287.648H337.4V280.996Z" fill="white"/>
<path d="M344.007 280.996H337.355V287.648H344.007V280.996Z" fill="white"/>
<path d="M131.171 287.648H124.519V294.301H131.171V287.648Z" fill="white"/>
<path d="M137.779 287.648H131.126V294.301H137.779V287.648Z" fill="white"/>
<path d="M144.475 287.648H137.823V294.301H144.475V287.648Z" fill="white"/>
<path d="M157.78 287.648H151.127V294.301H157.78V287.648Z" fill="white"/>
<path d="M164.432 287.648H157.779V294.301H164.432V287.648Z" fill="white"/>
<path d="M171.025 287.648H164.373V294.301H171.025V287.648Z" fill="white"/>
<path d="M177.691 287.648H171.039V294.301H177.691V287.648Z" fill="white"/>
<path d="M184.329 287.648H177.676V294.301H184.329V287.648Z" fill="white"/>
<path d="M204.359 287.648H197.707V294.301H204.359V287.648Z" fill="white"/>
<path d="M210.966 287.648H204.314V294.301H210.966V287.648Z" fill="white"/>
<path d="M224.314 287.648H217.662V294.301H224.314V287.648Z" fill="white"/>
<path d="M264.212 287.648H257.56V294.301H264.212V287.648Z" fill="white"/>
<path d="M284.139 287.648H277.487V294.301H284.139V287.648Z" fill="white"/>
<path d="M290.851 287.648H284.198V294.301H290.851V287.648Z" fill="white"/>
<path d="M297.458 287.648H290.806V294.301H297.458V287.648Z" fill="white"/>
<path d="M304.11 287.648H297.458V294.301H304.11V287.648Z" fill="white"/>
<path d="M310.807 287.648H304.154V294.301H310.807V287.648Z" fill="white"/>
<path d="M317.429 287.648H310.777V294.301H317.429V287.648Z" fill="white"/>
<path d="M324.051 287.648H317.398V294.301H324.051V287.648Z" fill="white"/>
<path d="M337.4 287.648H330.748V294.301H337.4V287.648Z" fill="white"/>
<path d="M184.329 294.315H177.676V300.967H184.329V294.315Z" fill="white"/>
<path d="M204.359 294.315H197.707V300.967H204.359V294.315Z" fill="white"/>
<path d="M210.966 294.315H204.314V300.967H210.966V294.315Z" fill="white"/>
<path d="M217.663 294.315H211.01V300.967H217.663V294.315Z" fill="white"/>
<path d="M224.314 294.315H217.662V300.967H224.314V294.315Z" fill="white"/>
<path d="M230.981 294.315H224.329V300.967H230.981V294.315Z" fill="white"/>
<path d="M237.619 294.315H230.967V300.967H237.619V294.315Z" fill="white"/>
<path d="M244.241 294.315H237.589V300.967H244.241V294.315Z" fill="white"/>
<path d="M250.879 294.315H244.227V300.967H250.879V294.315Z" fill="white"/>
<path d="M264.212 294.315H257.56V300.967H264.212V294.315Z" fill="white"/>
<path d="M284.139 294.315H277.487V300.967H284.139V294.315Z" fill="white"/>
<path d="M290.851 294.315H284.198V300.967H290.851V294.315Z" fill="white"/>
<path d="M317.429 294.315H310.777V300.967H317.429V294.315Z" fill="white"/>
<path d="M330.718 294.315H324.066V300.967H330.718V294.315Z" fill="white"/>
<path d="M337.4 294.315H330.748V300.967H337.4V294.315Z" fill="white"/>
<path d="M184.329 300.967H177.676V307.619H184.329V300.967Z" fill="white"/>
<path d="M204.359 300.96H197.707V307.612H204.359V300.96Z" fill="white"/>
<path d="M210.966 300.967H204.314V307.619H210.966V300.967Z" fill="white"/>
<path d="M217.663 300.967H211.01V307.619H217.663V300.967Z" fill="white"/>
<path d="M224.314 300.967H217.662V307.619H224.314V300.967Z" fill="white"/>
<path d="M230.981 300.967H224.329V307.619H230.981V300.967Z" fill="white"/>
<path d="M237.619 300.967H230.967V307.619H237.619V300.967Z" fill="white"/>
<path d="M250.879 300.967H244.227V307.619H250.879V300.967Z" fill="white"/>
<path d="M257.56 300.967H250.908V307.619H257.56V300.967Z" fill="white"/>
<path d="M264.212 300.967H257.56V307.619H264.212V300.967Z" fill="white"/>
<path d="M270.864 300.967H264.212V307.619H270.864V300.967Z" fill="white"/>
<path d="M284.139 300.967H277.487V307.619H284.139V300.967Z" fill="white"/>
<path d="M290.851 300.967H284.198V307.619H290.851V300.967Z" fill="white"/>
<path d="M304.11 300.967H297.458V307.619H304.11V300.967Z" fill="white"/>
<path d="M317.429 300.967H310.777V307.619H317.429V300.967Z" fill="white"/>
<path d="M330.718 300.967H324.066V307.619H330.718V300.967Z" fill="white"/>
<path d="M184.329 307.619H177.676V314.272H184.329V307.619Z" fill="white"/>
<path d="M197.706 307.619H191.054V314.272H197.706V307.619Z" fill="white"/>
<path d="M217.663 307.619H211.01V314.272H217.663V307.619Z" fill="white"/>
<path d="M250.879 307.619H244.227V314.272H250.879V307.619Z" fill="white"/>
<path d="M257.56 307.619H250.908V314.272H257.56V307.619Z" fill="white"/>
<path d="M264.212 307.619H257.56V314.272H264.212V307.619Z" fill="white"/>
<path d="M284.139 307.619H277.487V314.272H284.139V307.619Z" fill="white"/>
<path d="M290.851 307.619H284.198V314.272H290.851V307.619Z" fill="white"/>
<path d="M317.429 307.619H310.777V314.272H317.429V307.619Z" fill="white"/>
<path d="M324.051 307.619H317.398V314.272H324.051V307.619Z" fill="white"/>
<path d="M330.718 307.619H324.066V314.272H330.718V307.619Z" fill="white"/>
<path d="M337.4 307.619H330.748V314.272H337.4V307.619Z" fill="white"/>
<path d="M344.007 307.619H337.355V314.272H344.007V307.619Z" fill="white"/>
<path d="M184.329 314.264H177.676V320.916H184.329V314.264Z" fill="white"/>
<path d="M191.04 314.264H184.388V320.916H191.04V314.264Z" fill="white"/>
<path d="M197.706 314.264H191.054V320.916H197.706V314.264Z" fill="white"/>
<path d="M204.359 314.264H197.707V320.916H204.359V314.264Z" fill="white"/>
<path d="M210.966 314.264H204.314V320.916H210.966V314.264Z" fill="white"/>
<path d="M224.314 314.264H217.662V320.916H224.314V314.264Z" fill="white"/>
<path d="M264.212 314.264H257.56V320.916H264.212V314.264Z" fill="white"/>
<path d="M277.532 314.264H270.879V320.916H277.532V314.264Z" fill="white"/>
<path d="M284.139 314.264H277.487V320.916H284.139V314.264Z" fill="white"/>
<path d="M290.851 314.264H284.198V320.916H290.851V314.264Z" fill="white"/>
<path d="M297.458 314.264H290.806V320.916H297.458V314.264Z" fill="white"/>
<path d="M304.11 314.264H297.458V320.916H304.11V314.264Z" fill="white"/>
<path d="M310.807 314.264H304.154V320.916H310.807V314.264Z" fill="white"/>
<path d="M317.429 314.264H310.777V320.916H317.429V314.264Z" fill="white"/>
<path d="M184.329 320.916H177.676V327.568H184.329V320.916Z" fill="white"/>
<path d="M191.04 320.916H184.388V327.568H191.04V320.916Z" fill="white"/>
<path d="M204.359 320.916H197.707V327.568H204.359V320.916Z" fill="white"/>
<path d="M217.663 320.916H211.01V327.568H217.663V320.916Z" fill="white"/>
<path d="M230.981 320.916H224.329V327.568H230.981V320.916Z" fill="white"/>
<path d="M244.241 320.916H237.589V327.568H244.241V320.916Z" fill="white"/>
<path d="M257.56 320.916H250.908V327.568H257.56V320.916Z" fill="white"/>
<path d="M264.212 320.916H257.56V327.568H264.212V320.916Z" fill="white"/>
<path d="M270.864 320.916H264.212V327.568H270.864V320.916Z" fill="white"/>
<path d="M277.532 320.916H270.879V327.568H277.532V320.916Z" fill="white"/>
<path d="M284.139 320.916H277.487V327.568H284.139V320.916Z" fill="white"/>
<path d="M290.851 320.916H284.198V327.568H290.851V320.916Z" fill="white"/>
<path d="M297.458 320.916H290.806V327.568H297.458V320.916Z" fill="white"/>
<path d="M310.807 320.916H304.154V327.568H310.807V320.916Z" fill="white"/>
<path d="M337.4 320.916H330.748V327.568H337.4V320.916Z" fill="white"/>
<path d="M344.007 320.916H337.355V327.568H344.007V320.916Z" fill="white"/>
<path d="M197.706 327.568H191.054V334.22H197.706V327.568Z" fill="white"/>
<path d="M230.981 327.568H224.329V334.22H230.981V327.568Z" fill="white"/>
<path d="M237.619 327.568H230.967V334.22H237.619V327.568Z" fill="white"/>
<path d="M250.879 327.568H244.227V334.22H250.879V327.568Z" fill="white"/>
<path d="M257.56 327.568H250.908V334.22H257.56V327.568Z" fill="white"/>
<path d="M264.212 327.568H257.56V334.22H264.212V327.568Z" fill="white"/>
<path d="M270.864 327.568H264.212V334.22H270.864V327.568Z" fill="white"/>
<path d="M277.532 327.568H270.879V334.22H277.532V327.568Z" fill="white"/>
<path d="M284.139 327.568H277.487V334.22H284.139V327.568Z" fill="white"/>
<path d="M290.851 327.568H284.198V334.22H290.851V327.568Z" fill="white"/>
<path d="M310.807 327.568H304.154V334.22H310.807V327.568Z" fill="white"/>
<path d="M317.429 327.568H310.777V334.22H317.429V327.568Z" fill="white"/>
<path d="M330.718 327.568H324.066V334.22H330.718V327.568Z" fill="white"/>
<path d="M337.4 327.568H330.748V334.22H337.4V327.568Z" fill="white"/>
<path d="M344.007 327.568H337.355V334.22H344.007V327.568Z" fill="white"/>
<path d="M217.663 334.22H211.01V340.872H217.663V334.22Z" fill="white"/>
<path d="M237.619 334.22H230.967V340.872H237.619V334.22Z" fill="white"/>
<path d="M257.56 334.22H250.908V340.872H257.56V334.22Z" fill="white"/>
<path d="M277.532 334.22H270.879V340.872H277.532V334.22Z" fill="white"/>
<path d="M310.807 334.22H304.154V340.872H310.807V334.22Z" fill="white"/>
<path d="M317.429 334.22H310.777V340.872H317.429V334.22Z" fill="white"/>
<path d="M324.051 334.22H317.398V340.872H324.051V334.22Z" fill="white"/>
<path d="M330.718 334.22H324.066V340.872H330.718V334.22Z" fill="white"/>
<path d="M337.4 334.22H330.748V340.872H337.4V334.22Z" fill="white"/>
<path d="M344.007 334.22H337.355V340.872H344.007V334.22Z" fill="white"/>
<path d="M184.329 340.872H177.676V347.524H184.329V340.872Z" fill="white"/>
<path d="M191.04 340.872H184.388V347.524H191.04V340.872Z" fill="white"/>
<path d="M204.359 340.88H197.707V347.532H204.359V340.88Z" fill="white"/>
<path d="M230.981 340.872H224.329V347.524H230.981V340.872Z" fill="white"/>
<path d="M237.619 340.872H230.967V347.524H237.619V340.872Z" fill="white"/>
<path d="M244.241 340.872H237.589V347.524H244.241V340.872Z" fill="white"/>
<path d="M257.56 340.872H250.908V347.524H257.56V340.872Z" fill="white"/>
<path d="M284.139 340.872H277.487V347.524H284.139V340.872Z" fill="white"/>
<path d="M290.851 340.872H284.198V347.524H290.851V340.872Z" fill="white"/>
<path d="M304.11 340.872H297.458V347.524H304.11V340.872Z" fill="white"/>
<path d="M310.807 340.872H304.154V347.524H310.807V340.872Z" fill="white"/>
<path d="M317.429 340.872H310.777V347.524H317.429V340.872Z" fill="white"/>
<path d="M164.1 127.999H131.504H124.519V134.984V167.58V174.565H131.504H164.1H171.085V167.58V134.984V127.999H164.1ZM164.1 167.58H131.504V134.984H164.1V167.58Z" fill="white"/>
<path d="M337.083 127.999H304.486H297.501V134.984V167.58V174.565H304.486H337.083H344.068V167.58V134.984V127.999H337.083ZM337.083 167.58H304.486V134.984H337.083V167.58Z" fill="white"/>
<path d="M164.1 300.968H131.504H124.519V307.952V340.549V347.534H131.504H164.1H171.085V340.549V307.952V300.968H164.1ZM164.1 340.549H131.504V307.952H164.1V340.549Z" fill="white"/>
<path d="M157.78 141.311H137.823V161.268H157.78V141.311Z" fill="white"/>
<path d="M330.734 141.311H310.777V161.268H330.734V141.311Z" fill="white"/>
<path d="M157.78 314.264H137.823V334.221H157.78V314.264Z" fill="white"/>
<path d="M176.665 402.57C176.673 401.911 176.577 401.324 176.378 400.809C176.194 400.294 175.855 399.821 175.362 399.391C174.869 398.96 174.171 398.542 173.268 398.136C172.379 397.715 171.241 397.284 169.855 396.843C168.337 396.356 166.937 395.82 165.655 395.233C164.388 394.632 163.282 393.945 162.339 393.172C161.396 392.385 160.667 391.49 160.151 390.488C159.636 389.471 159.386 388.303 159.402 386.985C159.417 385.681 159.702 384.498 160.257 383.435C160.826 382.372 161.62 381.459 162.64 380.695C163.675 379.916 164.89 379.322 166.287 378.914C167.684 378.491 169.224 378.289 170.909 378.309C173.281 378.337 175.32 378.8 177.023 379.7C178.741 380.599 180.053 381.794 180.958 383.284C181.878 384.774 182.327 386.413 182.306 388.2L176.836 388.135C176.848 387.081 176.632 386.148 176.187 385.337C175.758 384.512 175.091 383.859 174.189 383.38C173.301 382.901 172.168 382.653 170.792 382.637C169.488 382.621 168.402 382.806 167.533 383.191C166.664 383.577 166.013 384.104 165.581 384.772C165.148 385.441 164.926 386.2 164.916 387.05C164.909 387.65 165.042 388.201 165.314 388.703C165.587 389.189 166.006 389.648 166.573 390.08C167.139 390.497 167.852 390.893 168.712 391.27C169.572 391.646 170.586 392.01 171.754 392.36C173.52 392.909 175.058 393.513 176.369 394.173C177.68 394.818 178.77 395.549 179.639 396.365C180.508 397.181 181.157 398.104 181.584 399.135C182.012 400.15 182.218 401.303 182.203 402.592C182.187 403.939 181.901 405.152 181.347 406.229C180.792 407.292 180.005 408.199 178.985 408.948C177.98 409.684 176.773 410.248 175.362 410.642C173.965 411.021 172.41 411.2 170.697 411.18C169.159 411.162 167.645 410.939 166.156 410.511C164.681 410.083 163.341 409.445 162.135 408.596C160.93 407.732 159.975 406.666 159.272 405.398C158.57 404.115 158.228 402.624 158.248 400.925L163.763 400.99C163.751 402.03 163.916 402.918 164.259 403.655C164.617 404.391 165.115 404.998 165.754 405.474C166.393 405.936 167.136 406.282 167.983 406.511C168.845 406.741 169.766 406.862 170.747 406.874C172.036 406.889 173.115 406.718 173.984 406.362C174.867 406.007 175.532 405.502 175.979 404.848C176.426 404.194 176.655 403.435 176.665 402.57ZM192.404 387.22L192.124 410.993L186.807 410.93L187.087 387.158L192.404 387.22ZM186.809 380.914C186.819 380.108 187.09 379.445 187.624 378.924C188.172 378.388 188.922 378.126 189.874 378.137C190.812 378.148 191.548 378.428 192.084 378.976C192.62 379.51 192.883 380.18 192.873 380.985C192.864 381.776 192.585 382.432 192.037 382.953C191.489 383.474 190.746 383.729 189.809 383.718C188.856 383.707 188.113 383.434 187.577 382.9C187.056 382.367 186.8 381.705 186.809 380.914ZM213.43 387.468L218.242 387.525L217.97 410.639C217.944 412.777 217.469 414.588 216.543 416.071C215.617 417.555 214.337 418.675 212.702 419.432C211.067 420.204 209.18 420.577 207.041 420.552C206.133 420.541 205.124 420.398 204.014 420.121C202.919 419.844 201.854 419.407 200.821 418.809C199.803 418.225 198.955 417.461 198.277 416.515L200.797 413.425C201.634 414.445 202.563 415.196 203.583 415.677C204.603 416.158 205.677 416.405 206.804 416.418C208.02 416.432 209.055 416.218 209.91 415.774C210.78 415.344 211.454 414.7 211.933 413.842C212.412 412.983 212.659 411.931 212.673 410.686L212.884 392.846L213.43 387.468ZM197.138 399.428L197.144 398.967C197.165 397.165 197.404 395.527 197.861 394.053C198.318 392.564 198.963 391.29 199.796 390.23C200.629 389.156 201.635 388.34 202.813 387.783C203.992 387.211 205.321 386.933 206.8 386.951C208.338 386.969 209.646 387.263 210.723 387.832C211.815 388.402 212.721 389.211 213.442 390.259C214.162 391.293 214.719 392.53 215.112 393.971C215.52 395.396 215.816 396.982 216.001 398.727L215.983 400.2C215.773 401.896 215.432 403.445 214.961 404.846C214.491 406.247 213.876 407.455 213.117 408.472C212.358 409.488 211.426 410.269 210.32 410.812C209.23 411.356 207.945 411.619 206.466 411.602C205.016 411.585 203.708 411.269 202.543 410.655C201.393 410.04 200.407 409.186 199.585 408.093C198.778 406.999 198.163 405.717 197.741 404.247C197.319 402.763 197.118 401.156 197.138 399.428ZM202.439 399.029L202.433 399.49C202.421 400.574 202.511 401.586 202.705 402.526C202.914 403.466 203.234 404.297 203.665 405.02C204.11 405.729 204.675 406.292 205.359 406.71C206.057 407.114 206.882 407.322 207.834 407.333C209.08 407.348 210.101 407.096 210.898 406.578C211.71 406.06 212.333 405.357 212.769 404.469C213.219 403.566 213.538 402.559 213.727 401.447L213.774 397.471C213.696 396.605 213.523 395.798 213.253 395.047C212.998 394.297 212.647 393.641 212.2 393.079C211.752 392.503 211.186 392.056 210.501 391.741C209.817 391.41 209.006 391.24 208.068 391.229C207.116 391.217 206.286 391.413 205.578 391.815C204.87 392.216 204.285 392.773 203.823 393.486C203.375 394.198 203.035 395.029 202.804 395.979C202.574 396.928 202.452 397.945 202.439 399.029ZM228.926 392.727L228.706 411.425L223.411 411.362L223.691 387.589L228.678 387.648L228.926 392.727ZM227.911 398.648L226.198 398.606C226.232 396.922 226.485 395.379 226.956 393.978C227.441 392.578 228.1 391.377 228.932 390.376C229.779 389.375 230.784 388.611 231.947 388.082C233.111 387.539 234.403 387.276 235.824 387.293C236.967 387.306 237.997 387.48 238.916 387.813C239.85 388.132 240.643 388.646 241.293 389.357C241.959 390.068 242.461 390.99 242.799 392.122C243.137 393.239 243.297 394.611 243.278 396.236L243.097 411.594L237.78 411.532L237.961 396.152C237.975 395.009 237.817 394.107 237.488 393.443C237.173 392.766 236.703 392.284 236.076 391.998C235.465 391.698 234.697 391.543 233.775 391.532C232.866 391.521 232.051 391.702 231.329 392.074C230.607 392.447 229.993 392.959 229.487 393.613C228.996 394.266 228.613 395.023 228.34 395.885C228.066 396.746 227.923 397.667 227.911 398.648ZM278.562 380.018L284.055 380.083L283.803 401.461C283.774 403.892 283.223 405.922 282.149 407.55C281.075 409.178 279.625 410.399 277.798 411.213C275.987 412.012 273.968 412.398 271.742 412.372C269.442 412.345 267.396 411.91 265.605 411.069C263.813 410.213 262.407 408.958 261.386 407.305C260.38 405.653 259.891 403.611 259.92 401.179L260.172 379.801L265.665 379.866L265.413 401.244C265.395 402.782 265.643 404.052 266.159 405.054C266.675 406.042 267.413 406.776 268.374 407.256C269.335 407.736 270.475 407.984 271.793 407.999C273.112 408.015 274.25 407.794 275.207 407.336C276.18 406.879 276.935 406.163 277.474 405.188C278.013 404.198 278.292 402.934 278.31 401.396L278.562 380.018ZM294.692 392.997L294.357 421.34L289.062 421.278L289.451 388.365L294.328 388.422L294.692 392.997ZM310.098 400.277L310.092 400.738C310.072 402.467 309.848 404.068 309.42 405.543C309.008 407.003 308.399 408.277 307.595 409.367C306.806 410.441 305.837 411.272 304.687 411.859C303.538 412.446 302.216 412.731 300.722 412.713C299.242 412.696 297.949 412.41 296.843 411.855C295.751 411.285 294.83 410.49 294.08 409.471C293.33 408.451 292.729 407.257 292.276 405.89C291.838 404.508 291.534 402.995 291.363 401.352L291.384 399.573C291.595 397.832 291.936 396.254 292.407 394.838C292.892 393.423 293.522 392.207 294.296 391.191C295.069 390.175 296.009 389.395 297.114 388.851C298.219 388.307 299.504 388.044 300.969 388.061C302.463 388.079 303.785 388.388 304.935 388.987C306.085 389.572 307.05 390.404 307.828 391.482C308.607 392.546 309.185 393.828 309.563 395.326C309.941 396.81 310.119 398.46 310.098 400.277ZM304.797 400.676L304.803 400.214C304.816 399.116 304.725 398.097 304.531 397.157C304.337 396.202 304.025 395.364 303.594 394.641C303.163 393.918 302.606 393.354 301.922 392.951C301.253 392.533 300.442 392.318 299.49 392.307C298.553 392.296 297.745 392.447 297.068 392.762C296.39 393.061 295.821 393.487 295.361 394.038C294.9 394.589 294.541 395.237 294.283 395.981C294.025 396.711 293.84 397.507 293.727 398.37L293.677 402.632C293.84 403.689 294.129 404.659 294.544 405.543C294.958 406.427 295.55 407.137 296.321 407.673C297.105 408.195 298.113 408.464 299.343 408.478C300.296 408.489 301.111 408.294 301.79 407.892C302.468 407.49 303.024 406.932 303.457 406.219C303.905 405.492 304.238 404.654 304.454 403.704C304.67 402.754 304.785 401.745 304.797 400.676Z" fill="white"/>
</svg>
