<svg width="114" height="60" viewBox="0 0 114 60" fill="none" xmlns="http://www.w3.org/2000/svg">
<g clip-path="url(#clip0_0_384)">
<path d="M44.5908 22.814C44.6565 22.884 44.7283 22.9484 44.8026 23.011C44.7277 22.949 44.6571 22.884 44.5908 22.814Z" fill="#00AAE1"/>
<path d="M44.8486 23.0518C44.9383 23.1224 45.0328 23.1881 45.1335 23.2464C45.0328 23.1881 44.9383 23.1224 44.8486 23.0518Z" fill="#00AAE1"/>
<path d="M68.8701 23.2464C68.9708 23.1881 69.0654 23.123 69.155 23.0518C69.0654 23.1224 68.9708 23.1881 68.8701 23.2464Z" fill="#00AAE1"/>
<path d="M65.1349 11.6985C65.1349 11.5991 65.1275 11.5002 65.1152 11.4026C65.1275 11.5002 65.1349 11.5984 65.1349 11.6985Z" fill="#00AAE1"/>
<path d="M64.7002 10.3239C64.7002 10.3239 64.6965 10.319 64.6953 10.3159C64.6972 10.3184 64.699 10.3208 64.7002 10.3239Z" fill="#00AAE1"/>
<path d="M49.7909 9.802C49.775 9.8149 49.7608 9.82963 49.7449 9.84252C49.7608 9.82963 49.775 9.8149 49.7909 9.802Z" fill="#00AAE1"/>
<path d="M64.2589 9.84252C64.243 9.82963 64.2289 9.8149 64.2129 9.802C64.2289 9.8149 64.243 9.82902 64.2589 9.84252Z" fill="#00AAE1"/>
<path d="M64.4959 10.0685C64.4873 10.0593 64.4799 10.0495 64.4707 10.0403C64.4793 10.0495 64.4873 10.0593 64.4959 10.0685Z" fill="#00AAE1"/>
<path d="M64.9893 10.8855C64.9875 10.8793 64.9856 10.8738 64.9832 10.8677C64.9856 10.8732 64.9868 10.8793 64.9893 10.8855Z" fill="#00AAE1"/>
<path d="M64.9832 19.1314C64.985 19.1265 64.9862 19.1216 64.9881 19.1167C64.9862 19.1216 64.985 19.1265 64.9832 19.1314Z" fill="#00AAE1"/>
<path d="M65.0809 11.2133C65.0748 11.1844 65.0705 11.155 65.0637 11.1267C65.0711 11.155 65.0748 11.1844 65.0809 11.2133Z" fill="#00AAE1"/>
<path d="M65.0637 18.8724C65.0705 18.8454 65.0748 18.8172 65.0803 18.7896C65.0742 18.8172 65.0705 18.8448 65.0637 18.8724Z" fill="#00AAE1"/>
<path d="M65.116 18.5968C65.1276 18.4998 65.1356 18.4022 65.1356 18.3027C65.1356 18.4022 65.1282 18.4998 65.116 18.5968Z" fill="#00AAE1"/>
<path d="M44.5657 22.785C44.4939 22.7071 44.4276 22.6242 44.3674 22.5376C44.4276 22.6242 44.4945 22.7064 44.5657 22.785Z" fill="#00AAE1"/>
<path d="M69.8169 7.76416L69.8197 7.76902C69.8197 7.76902 69.8176 7.76624 69.8169 7.76416Z" fill="#00AAE1"/>
<path d="M69.2017 23.0106C69.2759 22.9485 69.3478 22.8841 69.4135 22.8135C69.3472 22.8835 69.2766 22.9485 69.2017 23.0106Z" fill="#00AAE1"/>
<path d="M69.8165 22.2351L64.8748 19.3821L69.8165 22.2351Z" fill="#00AAE1"/>
<path d="M69.6427 7.47095C69.6519 7.48507 69.6581 7.49919 69.6666 7.5127C69.6581 7.49919 69.6513 7.48445 69.6421 7.47095H69.6427Z" fill="#00AAE1"/>
<path d="M57.3137 23.9978C57.21 24.0113 57.1062 24.0181 57.0018 24.0181C56.8975 24.0181 56.7937 24.0113 56.6899 23.9978C56.8968 24.0248 57.1068 24.0248 57.3137 23.9978Z" fill="#00AAE1"/>
<path d="M49.5332 10.0396C49.5246 10.0488 49.5167 10.0586 49.5081 10.0678C49.5167 10.0586 49.524 10.0488 49.5332 10.0396Z" fill="#00AAE1"/>
<path d="M58.2095 0.59861C57.8356 0.383112 57.4187 0.275056 57.0019 0.275056C56.585 0.275056 56.1681 0.383112 55.7948 0.59861L45.1335 6.7535C45.0328 6.81183 44.9383 6.87691 44.8486 6.94812C44.9383 6.87752 45.0328 6.81183 45.1335 6.7535L55.7948 0.59861C56.542 0.167 57.4623 0.167 58.2095 0.59861L68.8708 6.7535C68.9715 6.81183 69.0661 6.87752 69.1557 6.94812C69.0661 6.87691 68.9715 6.81183 68.8708 6.7535L58.2095 0.59861Z" fill="#00AAE1"/>
<path d="M49.3091 10.3159C49.3091 10.3159 49.3054 10.3208 49.3042 10.3239C49.306 10.3214 49.3079 10.319 49.3091 10.3159Z" fill="#00AAE1"/>
<path d="M49.1298 10.6181C48.964 10.9484 48.8688 11.3161 48.8688 11.6986V18.3017C48.8688 18.6842 48.964 19.0514 49.1298 19.3823L44.1874 22.2359C44.2384 22.3378 44.2967 22.4355 44.3612 22.5294C44.0855 22.1316 43.9265 21.6557 43.9265 21.1554V8.84498C43.9265 8.3446 44.0855 7.86879 44.3612 7.47095C44.2967 7.56488 44.2384 7.66311 44.1874 7.76503L49.1298 10.6187V10.6181Z" fill="#009BCC"/>
<path d="M69.8168 22.2359C69.8168 22.2359 69.8193 22.2322 69.8199 22.2297C69.7683 22.3335 69.7094 22.4336 69.6431 22.5293C69.7075 22.4354 69.7659 22.3378 69.8168 22.2359Z" fill="#00AAE1"/>
<path d="M69.9489 8.08236C69.9158 7.98535 69.8783 7.88957 69.8335 7.7981C69.8777 7.89019 69.9164 7.98474 69.9489 8.08236Z" fill="#00AAE1"/>
<path d="M64.6948 19.684C64.6948 19.684 64.6985 19.6785 64.7003 19.676C64.6985 19.6785 64.6967 19.6816 64.6948 19.684Z" fill="#00AAE1"/>
<path d="M70.0343 8.41628C70.0171 8.32358 69.9969 8.23148 69.9692 8.14185C69.9969 8.23148 70.0177 8.32296 70.0343 8.41628Z" fill="#00AAE1"/>
<path d="M69.4136 7.18585C69.3479 7.11586 69.2761 7.05078 69.2012 6.98877C69.2761 7.05078 69.3473 7.11586 69.4136 7.18585Z" fill="#00AAE1"/>
<path d="M69.637 7.46227C69.5769 7.3757 69.5099 7.29343 69.4387 7.21484C69.5106 7.29343 69.5769 7.3757 69.637 7.46227Z" fill="#00AAE1"/>
<path d="M69.8162 7.76417C69.7652 7.66286 69.7069 7.56524 69.6431 7.47192C69.7075 7.56524 69.7652 7.66286 69.8162 7.76417Z" fill="#00AAE1"/>
<path d="M69.833 22.2031C69.8784 22.1104 69.9165 22.014 69.9497 21.9158C69.9171 22.014 69.8778 22.1098 69.833 22.2031Z" fill="#00AAE1"/>
<path d="M69.4387 22.785C69.5099 22.7064 69.5769 22.6248 69.637 22.5376C69.5762 22.6242 69.5106 22.7064 69.4387 22.785Z" fill="#00AAE1"/>
<path d="M70.0772 21.155C70.0772 21.2741 70.0668 21.3914 70.0496 21.5074C70.0668 21.392 70.0772 21.2741 70.0772 21.155Z" fill="#00AAE1"/>
<path d="M69.9692 21.8589C69.9969 21.7687 70.0177 21.6766 70.0349 21.5833C70.0184 21.6766 69.9969 21.7687 69.9692 21.8589Z" fill="#00AAE1"/>
<path d="M70.0772 8.8441C70.0772 8.72499 70.0668 8.60773 70.0496 8.49292C70.0668 8.60834 70.0772 8.72561 70.0772 8.8441Z" fill="#00AAE1"/>
<path d="M49.7449 20.1575C49.7608 20.1704 49.775 20.1857 49.7915 20.1986C49.7756 20.1857 49.7608 20.171 49.7449 20.1575Z" fill="#00AAE1"/>
<path d="M64.4712 19.9605C64.4798 19.9513 64.4878 19.9408 64.4964 19.9316C64.4878 19.9408 64.4798 19.9513 64.4712 19.9605Z" fill="#00AAE1"/>
<path d="M49.5081 19.9316C49.5167 19.9408 49.5246 19.9513 49.5332 19.9605C49.5246 19.9513 49.5167 19.9408 49.5081 19.9316Z" fill="#00AAE1"/>
<path d="M64.2129 20.1979C64.2295 20.185 64.2436 20.1702 64.2596 20.1567C64.2436 20.1702 64.2295 20.185 64.2129 20.1979Z" fill="#00AAE1"/>
<path d="M44.8028 6.98877C44.7285 7.05078 44.6566 7.11586 44.5903 7.18585C44.6566 7.11586 44.7279 7.05078 44.8028 6.98877Z" fill="#00AAE1"/>
<path d="M44.5657 7.21484C44.4945 7.29343 44.4276 7.3757 44.3674 7.46227C44.4282 7.3757 44.4939 7.29343 44.5657 7.21484Z" fill="#00AAE1"/>
<path d="M56.082 23.8357C56.2785 23.9167 56.4829 23.9708 56.6898 23.9972C56.4829 23.9702 56.2785 23.9161 56.082 23.8357Z" fill="#00AAE1"/>
<path d="M49.3035 19.676C49.3035 19.676 49.3072 19.6816 49.309 19.684C49.3072 19.6816 49.3053 19.6785 49.3035 19.676Z" fill="#00AAE1"/>
<path d="M69.8164 7.76477L64.8747 10.6178C64.8237 10.5159 64.7654 10.4177 64.7003 10.3237C64.6985 10.3213 64.6966 10.3188 64.6954 10.3158C64.6352 10.2286 64.5677 10.1463 64.4965 10.0677C64.4879 10.0585 64.4805 10.0487 64.4713 10.0395C64.4056 9.96948 64.3338 9.9044 64.2589 9.84239C64.2429 9.8295 64.2288 9.81477 64.2128 9.80187C64.1232 9.73066 64.0287 9.66558 63.928 9.60725L58.209 6.3054C57.8357 6.08991 57.4188 5.98185 57.002 5.98185V0.275146C57.4188 0.275146 57.8357 0.383202 58.209 0.5987L68.8703 6.75359C68.971 6.81192 69.0655 6.877 69.1552 6.94822C69.1711 6.96111 69.1853 6.97584 69.2012 6.98874C69.2755 7.05075 69.3473 7.11582 69.4136 7.18581C69.4222 7.19502 69.4302 7.20546 69.4388 7.21467C69.51 7.29326 69.577 7.37553 69.6371 7.46209C69.639 7.46516 69.6408 7.46762 69.6427 7.47069C69.6519 7.4842 69.6586 7.49893 69.6672 7.51244C69.7212 7.59409 69.7722 7.67759 69.8164 7.76477Z" fill="#007296"/>
<path d="M69.8171 7.76416L69.8164 7.76485L69.8171 7.76416Z" fill="#00AAE1"/>
<path d="M55.7949 0.5987C56.1682 0.383202 56.5851 0.275146 57.002 0.275146V5.98185C56.5851 5.98185 56.1682 6.08991 55.7949 6.3054L50.0759 9.60725C49.9752 9.66558 49.8807 9.73066 49.7911 9.80187C49.7751 9.81477 49.761 9.82889 49.745 9.84239C49.6707 9.9044 49.5983 9.96948 49.5326 10.0395C49.524 10.0487 49.516 10.0585 49.5074 10.0677C49.4362 10.1463 49.3687 10.2286 49.3085 10.3158C49.3066 10.3182 49.3048 10.3207 49.3036 10.3237C49.2391 10.4177 49.1808 10.5159 49.1292 10.6178L44.1875 7.76416C44.2385 7.66224 44.2968 7.56401 44.3612 7.47008C44.3631 7.46701 44.3649 7.46455 44.3668 7.46148C44.4269 7.37491 44.4939 7.29264 44.5651 7.21406C44.5737 7.20485 44.5817 7.19441 44.5903 7.1852C44.6559 7.11521 44.7278 7.05013 44.8027 6.98812C44.8186 6.97523 44.8328 6.96049 44.8487 6.9476C44.9384 6.87638 45.0329 6.8113 45.1336 6.75298L55.7949 0.5987Z" fill="#008DBA"/>
<path d="M57.002 24.0179C57.1063 24.0179 57.2101 24.0112 57.3138 23.9977C57.6245 23.9571 57.929 23.8558 58.209 23.6944L63.928 20.3925C64.0287 20.3342 64.1232 20.2691 64.2128 20.1979C64.2288 20.185 64.2435 20.1703 64.2595 20.1568C64.3338 20.0948 64.4056 20.0303 64.4713 19.9597C64.4799 19.9505 64.4879 19.94 64.4965 19.9308C64.5677 19.8522 64.6346 19.77 64.6954 19.6834C64.6973 19.681 64.6991 19.6779 64.7009 19.6754C64.7654 19.5815 64.8237 19.4833 64.8753 19.3813L69.817 22.2344C69.7654 22.3357 69.7084 22.4345 69.6433 22.5285C69.6414 22.5315 69.6396 22.534 69.6377 22.5371C69.6396 22.534 69.6414 22.5315 69.6433 22.5285C69.7077 22.4345 69.7661 22.3369 69.817 22.235C69.7661 22.3369 69.7077 22.4352 69.6433 22.5285C69.6414 22.5315 69.6396 22.534 69.6377 22.5371C69.5776 22.6236 69.5107 22.7059 69.4394 22.7845C69.4308 22.7937 69.4229 22.8041 69.4143 22.8134C69.3486 22.8833 69.2767 22.9478 69.2025 23.0104C69.1865 23.0239 69.1724 23.0387 69.1558 23.0516C69.0662 23.1222 68.9716 23.1879 68.8709 23.2462L58.2096 29.4011C57.9296 29.5625 57.6251 29.6639 57.3145 29.7044C57.2107 29.7179 57.1069 29.7246 57.0026 29.7246V24.0179H57.002Z" fill="#3BBFEF"/>
<path d="M44.3612 22.5292C44.2968 22.4353 44.2385 22.3377 44.1875 22.2357L49.1298 19.3821C49.1808 19.484 49.2391 19.5822 49.3042 19.6762C49.306 19.6786 49.3079 19.6817 49.3097 19.6841C49.3699 19.7707 49.4368 19.853 49.5086 19.9316C49.5172 19.9408 49.5252 19.9512 49.5338 19.9604C49.5995 20.0304 49.6713 20.0949 49.7456 20.1575C49.7616 20.171 49.7757 20.1857 49.7923 20.1986C49.8819 20.2692 49.9765 20.3349 50.0772 20.3933L51.1632 21.0201L49.5007 24.9642L54.8488 23.1481L55.7961 23.6951C55.8895 23.7491 55.9859 23.7964 56.0835 23.8369C56.2799 23.918 56.4844 23.972 56.6913 23.9984C56.795 24.0119 56.8988 24.0187 57.0032 24.0187V29.7254C56.6907 29.7254 56.3782 29.6646 56.0835 29.5436C55.9852 29.5031 55.8895 29.4558 55.7961 29.4018L45.1336 23.2463C45.0329 23.188 44.9384 23.1229 44.8487 23.0517C44.8328 23.0388 44.818 23.0241 44.8021 23.0106C44.7278 22.9485 44.6559 22.8841 44.5903 22.8135C44.5817 22.8043 44.5737 22.7938 44.5651 22.7846C44.4939 22.706 44.4269 22.6244 44.3668 22.5372C44.3649 22.5341 44.3631 22.5317 44.3612 22.5286V22.5292Z" fill="#00AAE1"/>
<path d="M64.8748 19.3821C64.9153 19.3005 64.9521 19.217 64.984 19.1316C64.9859 19.1267 64.9871 19.1218 64.989 19.1169C65.0178 19.0371 65.043 18.9561 65.0639 18.8732C65.0706 18.8462 65.0749 18.8179 65.0804 18.7903C65.0939 18.7264 65.1074 18.6626 65.116 18.5975C65.1283 18.5005 65.1357 18.4029 65.1357 18.3034V11.6985C65.1357 11.5984 65.1283 11.5002 65.116 11.4026C65.1081 11.3387 65.0946 11.2761 65.081 11.2135C65.0749 11.1846 65.0706 11.1551 65.0639 11.1269C65.043 11.0453 65.0184 10.9648 64.9896 10.8856C64.9877 10.8795 64.9859 10.874 64.9834 10.8678C64.9515 10.7831 64.9159 10.6996 64.8754 10.6192V10.6179L69.8171 7.76489C69.8171 7.76489 69.8189 7.76796 69.8195 7.76919C69.8245 7.77901 69.8294 7.78884 69.8343 7.79866C69.8791 7.89075 69.9165 7.98592 69.9497 8.08292C69.9565 8.10257 69.9638 8.12221 69.97 8.14247C69.9976 8.23211 70.0185 8.32359 70.035 8.41691C70.04 8.4427 70.0467 8.46726 70.0504 8.49366C70.0676 8.60908 70.078 8.72635 70.078 8.84484V21.1558C70.078 21.275 70.0676 21.3922 70.0504 21.5083C70.0467 21.534 70.04 21.5586 70.035 21.5838C70.0178 21.6771 69.997 21.7698 69.9693 21.8594C69.9632 21.8791 69.9565 21.8975 69.9497 21.9172C69.9165 22.0154 69.8785 22.1118 69.833 22.2045C69.8288 22.2131 69.8245 22.2223 69.8202 22.2309C69.8189 22.2327 69.8177 22.2346 69.8171 22.2364L64.8754 19.3834L64.8748 19.3821Z" fill="#66CDF5"/>
<path d="M69.8168 22.235C69.7659 22.3369 69.7075 22.4351 69.6431 22.5285C69.7081 22.4351 69.7652 22.3363 69.8168 22.2344V22.235Z" fill="#00AAE1"/>
<path d="M69.8162 7.76478C69.772 7.6776 69.7217 7.5941 69.667 7.51244C69.6584 7.49955 69.6517 7.48482 69.6431 7.47192C69.7075 7.56524 69.7652 7.66286 69.8162 7.76417V7.76478Z" fill="#00AAE1"/>
<path d="M69.6372 22.5379C69.6372 22.5379 69.6409 22.5324 69.6427 22.5293L69.6372 22.5379Z" fill="#00AAE1"/>
</g>
<path d="M7.13086 54.6565C3.85938 54.6565 1.7793 53.0452 1.60352 50.6135L1.59375 50.4768H4.03516L4.04492 50.5745C4.16211 51.7561 5.42188 52.5374 7.20898 52.5374C8.9082 52.5374 10.0996 51.6975 10.0996 50.4866V50.4768C10.0996 49.4612 9.36719 48.8459 7.55078 48.4553L6.03711 48.1428C3.15625 47.5374 1.90625 46.1897 1.90625 44.0901V44.0803C1.90625 41.5608 4.07422 39.8616 7.12109 39.8616C10.2461 39.8616 12.1895 41.5706 12.3652 43.8362L12.375 43.9631H9.96289L9.94336 43.8459C9.76758 42.7522 8.72266 41.9709 7.11133 41.9807C5.54883 41.9807 4.43555 42.7131 4.43555 43.9143V43.9241C4.43555 44.9202 5.14844 45.5452 6.90625 45.9163L8.41992 46.2385C11.3887 46.8635 12.6289 48.0549 12.6289 50.1838V50.1936C12.6289 52.9377 10.5098 54.6565 7.13086 54.6565ZM19.4062 54.3538C16.9551 54.3538 15.9492 53.5334 15.9492 51.4729V45.5159H14.2891V43.6311H15.9492V41.0139H18.4199V43.6311H20.6758V45.5159H18.4199V50.8967C18.4199 51.9612 18.8398 52.4104 19.8555 52.4104C20.1973 52.4104 20.3828 52.4006 20.6758 52.3713V54.2463C20.3242 54.3147 19.875 54.3538 19.4062 54.3538ZM27.6094 54.5198C24.4062 54.5198 22.4727 52.4299 22.4727 48.9729V48.9534C22.4727 45.5256 24.4355 43.426 27.6094 43.426C30.793 43.426 32.7461 45.5159 32.7461 48.9534V48.9729C32.7461 52.4299 30.8027 54.5198 27.6094 54.5198ZM27.6094 52.5471C29.2988 52.5471 30.2559 51.2288 30.2559 48.9827V48.9631C30.2559 46.717 29.2891 45.3889 27.6094 45.3889C25.9199 45.3889 24.9531 46.717 24.9531 48.9631V48.9827C24.9531 51.2288 25.9199 52.5471 27.6094 52.5471ZM39.7676 54.5198C36.5547 54.5198 34.6602 52.4397 34.6602 48.9534V48.9338C34.6602 45.4866 36.5449 43.426 39.7578 43.426C42.502 43.426 44.1426 44.9495 44.416 47.1565V47.1956H42.1211L42.1113 47.1663C41.8867 46.1311 41.0957 45.3889 39.7676 45.3889C38.1074 45.3889 37.1309 46.6975 37.1309 48.9338V48.9534C37.1309 51.219 38.1172 52.5471 39.7676 52.5471C41.0273 52.5471 41.7988 51.9709 42.1016 50.8479L42.1211 50.8088L44.416 50.7991L44.3965 50.8772C44.0449 53.0647 42.4727 54.5198 39.7676 54.5198ZM46.8281 54.3049V39.5002H49.2598V48.0061H49.4258L53.3613 43.6311H56.1738L51.877 48.1428L56.4668 54.3049H53.5371L50.1094 49.6858L49.2598 50.5549V54.3049H46.8281Z" fill="#179CCE"/>
<path d="M64.3086 54.6565C60.3145 54.6565 57.834 51.8245 57.834 47.2737V47.2542C57.834 42.6838 60.3047 39.8616 64.2988 39.8616C67.502 39.8616 69.9336 41.8928 70.2656 44.7737V44.8518H67.7949L67.7852 44.8127C67.4238 43.1428 66.0762 42.0393 64.2988 42.0393C61.9062 42.0393 60.4121 44.0413 60.4121 47.2444V47.2639C60.4121 50.4768 61.9062 52.4788 64.3086 52.4788C66.0957 52.4788 67.4238 51.4827 67.7852 49.9299L67.7949 49.8811H70.2656V49.9495C69.8945 52.7717 67.5605 54.6565 64.3086 54.6565ZM72.9219 54.3049V39.5002H75.3535V54.3049H72.9219ZM81.9648 54.5198C79.5625 54.5198 78.332 53.0745 78.332 50.5354V43.6311H80.7637V49.9788C80.7637 51.6292 81.3789 52.469 82.8438 52.469C84.416 52.469 85.2559 51.4534 85.2559 49.8518V43.6311H87.6875V54.3049H85.2559V52.6838H85.0898C84.5918 53.8264 83.5078 54.5198 81.9648 54.5198ZM96.5938 54.4807C95.0996 54.4807 93.9375 53.7971 93.3516 52.635H93.1855V54.3049H90.7539V39.5002H93.1855V45.3303H93.3516C93.9082 44.178 95.1289 43.4553 96.5938 43.4553C99.2988 43.4553 100.979 45.5647 100.979 48.9631V48.9827C100.979 52.3616 99.2695 54.4807 96.5938 54.4807ZM95.832 52.4299C97.4922 52.4299 98.498 51.1311 98.498 48.9827V48.9631C98.498 46.8147 97.4922 45.5061 95.832 45.5061C94.1816 45.5061 93.1562 46.8245 93.1562 48.9631V48.9827C93.1562 51.1213 94.1816 52.4299 95.832 52.4299ZM107.443 54.5198C104.729 54.5198 103.088 53.2698 102.883 51.4631V51.4436H105.295L105.305 51.4631C105.559 52.2053 106.271 52.7229 107.482 52.7229C108.693 52.7229 109.533 52.176 109.533 51.3752V51.3557C109.533 50.7307 109.064 50.3206 107.893 50.0569L106.164 49.6663C104.133 49.217 103.166 48.26 103.166 46.6877V46.678C103.166 44.7542 104.924 43.426 107.443 43.426C110.041 43.426 111.594 44.7151 111.75 46.4436V46.4631H109.465L109.455 46.4338C109.279 45.76 108.576 45.2131 107.434 45.2131C106.35 45.2131 105.568 45.7405 105.568 46.5413V46.551C105.568 47.176 106.018 47.5569 107.17 47.8206L108.898 48.2014C110.988 48.6702 111.975 49.5588 111.975 51.1116V51.1311C111.975 53.1624 110.07 54.5198 107.443 54.5198Z" fill="#127398"/>
<defs>
<clipPath id="clip0_0_384">
<rect width="26.1508" height="29.4495" fill="white" transform="translate(43.9265 0.275146)"/>
</clipPath>
</defs>
</svg>
